<svg xmlns="http://www.w3.org/2000/svg" viewBox="0 0 67.9 12.55"><defs><style>.cls-1{fill:#231f20;}</style></defs><g id="Layer_2" data-name="Layer 2"><g id="Layer_1-2" data-name="Layer 1"><path class="cls-1" d="M4.7,9.63A9.63,9.63,0,0,1,8.85,5.92l.33-.15.08,0,.68-.23a12.15,12.15,0,0,1,1.41-.36l.48-.08h-.07L12.48,5a13.69,13.69,0,0,1,1.57,0l.72.07c-.49-.07.19,0,.3.06.51.11,1,.24,1.52.4A9.19,9.19,0,0,1,19,6.73l.61.43c-.32-.25.29.26.35.32a12.81,12.81,0,0,1,1.15,1.18,8.52,8.52,0,0,1,.67,1,13.48,13.48,0,0,1,.87,1.69,2.52,2.52,0,0,0,3.42.9,2.57,2.57,0,0,0,.9-3.42A15.1,15.1,0,0,0,.39,7.1C-1.31,9.85,3,12.36,4.7,9.63Z"/><path class="cls-1" d="M67.51,7.1A15.1,15.1,0,0,0,41,8.81a2.58,2.58,0,0,0,.9,3.42,2.52,2.52,0,0,0,3.42-.9,13.48,13.48,0,0,1,.87-1.69c.14-.23.28-.45.43-.67.27-.38-.08.08.24-.31a10.38,10.38,0,0,1,2-1.86A14.4,14.4,0,0,1,50.22,6s.72-.32.29-.15l.69-.25a12.58,12.58,0,0,1,1.52-.41c.09,0,.91-.16.41-.09L53.85,5A11.68,11.68,0,0,1,55.3,5c.24,0,.48,0,.72.05.46,0-.18-.06.41.06s1,.22,1.53.38l.68.23c.54.2-.17-.09.3.13a12.57,12.57,0,0,1,1.39.77c.24.15.48.32.7.49-.32-.25.23.21.27.24a10.83,10.83,0,0,1,1.06,1.08,6.73,6.73,0,0,1,.84,1.18c1.68,2.73,6,.22,4.31-2.53Z"/></g></g></svg>