<svg xmlns="http://www.w3.org/2000/svg" viewBox="0 0 59.64 7.81"><defs><style>.cls-1{fill:#231f20;}</style></defs><g id="Layer_2" data-name="Layer 2"><g id="Layer_1-2" data-name="Layer 1"><path class="cls-1" d="M5,3.52V3.4a2,2,0,0,0-.21-1,1.85,1.85,0,0,0-.52-.8,1.85,1.85,0,0,0-.81-.52A1.74,1.74,0,0,0,2.5.9L1.84,1a2.55,2.55,0,0,0-1.11.65l-.39.5A2.54,2.54,0,0,0,0,3.4v.12a1.9,1.9,0,0,0,.22,1,1.89,1.89,0,0,0,.51.8,2,2,0,0,0,.81.52A1.88,1.88,0,0,0,2.5,6l.67-.09a2.5,2.5,0,0,0,1.1-.64l.39-.51A2.43,2.43,0,0,0,5,3.52Z"/><path class="cls-1" d="M6.44,5.67l.13-.12a1.93,1.93,0,0,0,.51-.81,1.88,1.88,0,0,0,.22-1,1.9,1.9,0,0,0-.22-1A1.89,1.89,0,0,0,6.57,2l-.51-.39A2.43,2.43,0,0,0,4.8,1.28l-.67.09A2.5,2.5,0,0,0,3,2l-.13.13a1.83,1.83,0,0,0-.51.8,1.9,1.9,0,0,0-.22,1,1.88,1.88,0,0,0,.22,1,1.83,1.83,0,0,0,.51.8l.51.39a2.54,2.54,0,0,0,1.26.35l.67-.09a2.52,2.52,0,0,0,1.1-.65Z"/><path class="cls-1" d="M10.62,3.78V3.65a1.88,1.88,0,0,0-.22-1,1.93,1.93,0,0,0-.51-.81,1.93,1.93,0,0,0-.81-.51,1.88,1.88,0,0,0-1-.22l-.67.09a2.5,2.5,0,0,0-1.1.64L6,2.39a2.43,2.43,0,0,0-.34,1.26v.13a2,2,0,0,0,.21,1,2,2,0,0,0,.52.81,1.93,1.93,0,0,0,.81.51,1.84,1.84,0,0,0,1,.22l.66-.09a2.53,2.53,0,0,0,1.11-.64L10.28,5a2.53,2.53,0,0,0,.34-1.26Z"/><path class="cls-1" d="M10.44,6.06h0l.59-.26h0l0,0h0l.26-.19.25-.2,0,0,0,0c.14-.17.27-.34.4-.52v0l0,0c.09-.2.18-.41.26-.62v0a1.89,1.89,0,0,0,.05-1,2,2,0,0,0-.3-.93,2,2,0,0,0-.64-.7A1.94,1.94,0,0,0,10.7,1L10,.9a2.43,2.43,0,0,0-1.26.34l-.5.39a2.52,2.52,0,0,0-.65,1.1s0,0,0,0l.25-.6s0,.05,0,.08l.39-.51a.27.27,0,0,1-.08.07l.51-.39a.41.41,0,0,1-.11.07l.6-.26h0a1.94,1.94,0,0,0-.85.45,1.88,1.88,0,0,0-.64.7,2,2,0,0,0-.3.93,1.9,1.9,0,0,0,0,1l.25.59a2.43,2.43,0,0,0,.9.9l.59.25a2.5,2.5,0,0,0,1.33,0Z"/><path class="cls-1" d="M13,5.64h.13a1.88,1.88,0,0,0,1-.22,1.93,1.93,0,0,0,.81-.51,1.93,1.93,0,0,0,.51-.81,1.86,1.86,0,0,0,.22-1l-.09-.66a2.58,2.58,0,0,0-.64-1.11L14.36,1A2.43,2.43,0,0,0,13.1.64H13a1.86,1.86,0,0,0-1,.22,1.93,1.93,0,0,0-.81.51,2.05,2.05,0,0,0-.52.81,2,2,0,0,0-.21,1l.09.66a2.48,2.48,0,0,0,.64,1.11l.51.39A2.53,2.53,0,0,0,13,5.64Z"/><path class="cls-1" d="M14.12,5.77h.25a1.9,1.9,0,0,0,1-.22,1.83,1.83,0,0,0,.8-.51,1.85,1.85,0,0,0,.52-.81,1.78,1.78,0,0,0,.21-1l-.09-.67a2.41,2.41,0,0,0-.64-1.1l-.5-.39A2.44,2.44,0,0,0,14.37.77h-.25a1.83,1.83,0,0,0-1,.21,2,2,0,0,0-.81.52,1.92,1.92,0,0,0-.52.8,2,2,0,0,0-.21,1l.09.66A2.53,2.53,0,0,0,12.35,5l.51.39a2.53,2.53,0,0,0,1.26.34Z"/><path class="cls-1" d="M13.53,3.14V3.4a1.88,1.88,0,0,0,.22,1,1.77,1.77,0,0,0,.52.8,1.77,1.77,0,0,0,.8.52,1.88,1.88,0,0,0,1,.22l.67-.09a2.52,2.52,0,0,0,1.1-.65l.39-.5a2.43,2.43,0,0,0,.34-1.26V3.14a1.85,1.85,0,0,0-.21-1,2,2,0,0,0-.52-.81A1.89,1.89,0,0,0,17,.86a1.9,1.9,0,0,0-1-.22l-.66.09a2.5,2.5,0,0,0-1.1.64l-.4.51a2.53,2.53,0,0,0-.34,1.26Z"/><path class="cls-1" d="M18.59,6.66c3.21,0,3.22-5,0-5s-3.23,5,0,5Z"/><path class="cls-1" d="M17.07,6.18a3.49,3.49,0,0,0,.32.25c.11.08.22.18.33.25l.08.05,0,0h0l.61.25.17.06h.05l.67.09h.12a2,2,0,0,0,1-.21,2,2,0,0,0,.81-.52,1.93,1.93,0,0,0,.51-.81,1.84,1.84,0,0,0,.22-1L21.89,4a2.53,2.53,0,0,0-.64-1.11l-.51-.39a2.53,2.53,0,0,0-1.26-.34h-.12l.66.09a1,1,0,0,1-.23-.06l.6.25a1,1,0,0,1-.22-.13l.51.39a.18.18,0,0,1-.07-.05,1.82,1.82,0,0,0-.8-.52,1.89,1.89,0,0,0-1-.21,1.88,1.88,0,0,0-1,.21,1.85,1.85,0,0,0-.81.52l-.39.5a2.57,2.57,0,0,0-.34,1.27l.09.66a2.5,2.5,0,0,0,.64,1.1Z"/><path class="cls-1" d="M21.65,7.81c3.22,0,3.22-5,0-5s-3.22,5,0,5Z"/><path class="cls-1" d="M59.64,2.88V2.76a1.9,1.9,0,0,0-.22-1,1.89,1.89,0,0,0-.51-.8A2,2,0,0,0,58.1.47a1.85,1.85,0,0,0-1-.21l-.66.09A2.39,2.39,0,0,0,55.37,1L55,1.5a2.41,2.41,0,0,0-.34,1.26v.12a1.9,1.9,0,0,0,.22,1,1.83,1.83,0,0,0,.51.8,1.85,1.85,0,0,0,.81.52,1.76,1.76,0,0,0,1,.21l.66-.08a2.5,2.5,0,0,0,1.11-.65l.39-.5a2.54,2.54,0,0,0,.34-1.27Z"/><path class="cls-1" d="M56.74,1.5l-.13-.13a1.89,1.89,0,0,0-.8-.51,2.23,2.23,0,0,0-1.93,0,1.93,1.93,0,0,0-.81.51l-.39.51a2.53,2.53,0,0,0-.34,1.26l.09.66a2.48,2.48,0,0,0,.64,1.11L53.2,5a1.93,1.93,0,0,0,.81.51,1.86,1.86,0,0,0,1,.22,1.88,1.88,0,0,0,1-.22A1.93,1.93,0,0,0,56.74,5l.39-.51a2.53,2.53,0,0,0,.34-1.26l-.09-.67a2.5,2.5,0,0,0-.64-1.1Z"/><path class="cls-1" d="M54,3.14V3a1.88,1.88,0,0,0-.21-1,2,2,0,0,0-.52-.81,1.89,1.89,0,0,0-.8-.51,1.9,1.9,0,0,0-1-.22L50.86.6a2.45,2.45,0,0,0-1.1.64l-.4.51A2.53,2.53,0,0,0,49,3v.13a1.86,1.86,0,0,0,.22,1,1.85,1.85,0,0,0,.52.81,1.83,1.83,0,0,0,.8.51,1.88,1.88,0,0,0,1,.22l.67-.09a2.5,2.5,0,0,0,1.1-.64l.39-.51A2.43,2.43,0,0,0,54,3.14Z"/><path class="cls-1" d="M50.53.6h0l.6.25L51,.79l.51.39a.6.6,0,0,1-.08-.08l.4.51a.22.22,0,0,1,0-.08l.25.6s0,0,0,0a1.94,1.94,0,0,0-.45-.85,2,2,0,0,0-.7-.64,2,2,0,0,0-.93-.3,1.9,1.9,0,0,0-1,0L48.35.6a2.43,2.43,0,0,0-.9.9l-.25.59a2.5,2.5,0,0,0,0,1.33v0a4.78,4.78,0,0,0,.26.62.05.05,0,0,0,0,0v0h0l.19.26.2.25,0,0,0,0,.52.4,0,0a.05.05,0,0,1,0,0c.21.1.43.19.65.27a1.89,1.89,0,0,0,1,0,1.89,1.89,0,0,0,.92-.3,1.91,1.91,0,0,0,.71-.64,1.83,1.83,0,0,0,.44-.85L52.36,3A2.43,2.43,0,0,0,52,1.75l-.39-.51A2.5,2.5,0,0,0,50.53.6Z"/><path class="cls-1" d="M46.67,0h-.13a1.88,1.88,0,0,0-1,.22,1.83,1.83,0,0,0-.8.51,1.85,1.85,0,0,0-.52.81,1.88,1.88,0,0,0-.22,1l.09.67a2.52,2.52,0,0,0,.65,1.1l.5.39A2.43,2.43,0,0,0,46.54,5h.13a1.93,1.93,0,0,0,1-.21,2,2,0,0,0,.81-.52A2,2,0,0,0,49,3.46a1.93,1.93,0,0,0,.21-1l-.09-.66A2.53,2.53,0,0,0,48.44.73L47.93.34A2.53,2.53,0,0,0,46.67,0Z"/><path class="cls-1" d="M45.52.13h-.25a2,2,0,0,0-1,.21,2,2,0,0,0-.8.52,2,2,0,0,0-.52.81,1.83,1.83,0,0,0-.21,1l.09.66A2.53,2.53,0,0,0,43.5,4.4l.51.39a2.53,2.53,0,0,0,1.26.34h.25a1.9,1.9,0,0,0,1-.22,1.89,1.89,0,0,0,.8-.51,2,2,0,0,0,.52-.81,1.88,1.88,0,0,0,.21-1L47.93,2a2.5,2.5,0,0,0-.64-1.1L46.78.47A2.43,2.43,0,0,0,45.52.13Z"/><path class="cls-1" d="M41.11,2.5v.26a1.88,1.88,0,0,0,.21,1,1.85,1.85,0,0,0,.52.8,1.82,1.82,0,0,0,.8.52,1.9,1.9,0,0,0,1,.22l.66-.09a2.55,2.55,0,0,0,1.11-.65l.39-.5a2.53,2.53,0,0,0,.34-1.26V2.5a1.88,1.88,0,0,0-.22-1,1.93,1.93,0,0,0-.51-.81,1.93,1.93,0,0,0-.81-.51,1.88,1.88,0,0,0-1-.22l-.67.09a2.5,2.5,0,0,0-1.1.64l-.39.51a2.43,2.43,0,0,0-.34,1.26Z"/><path class="cls-1" d="M41.05,6c3.22,0,3.23-5,0-5s-3.22,5,0,5Z"/><path class="cls-1" d="M39,2,39,2.07l.5-.4a.71.71,0,0,1-.22.13l.6-.25a.86.86,0,0,1-.23.06l.67-.08h-.13a1.88,1.88,0,0,0-1,.22,1.85,1.85,0,0,0-.81.52,1.83,1.83,0,0,0-.51.8,1.88,1.88,0,0,0-.22,1l.09.67a2.5,2.5,0,0,0,.64,1.1l.51.39a2.43,2.43,0,0,0,1.26.34h.12L41,6.44h0l.17,0,.63-.27,0,0,.08,0L42,6c.17-.12.35-.27.52-.4h0l0,0a1.93,1.93,0,0,0,.51-.81,1.88,1.88,0,0,0,.22-1,1.9,1.9,0,0,0-.22-1,1.89,1.89,0,0,0-.51-.8l-.51-.39a2.43,2.43,0,0,0-1.26-.34l-.67.09A2.5,2.5,0,0,0,39,2Z"/><path class="cls-1" d="M38,7.17c3.22,0,3.22-5,0-5s-3.22,5,0,5Z"/></g></g></svg>