<svg xmlns="http://www.w3.org/2000/svg" viewBox="0 0 70.18 9.77"><defs><style>.cls-1{fill:none;stroke:#231f20;stroke-miterlimit:10;stroke-width:3px;}</style></defs><g id="Layer_2" data-name="Layer 2"><g id="Layer_1-2" data-name="Layer 1"><path class="cls-1" d="M1.39,8.48,3,4.54c.29-.68.87-.73,1.19-.1l1.52,3c.33.63.91.58,1.19-.11L8.78,2.75C9.07,2,9.68,2,10,2.69l1.79,3.84c.41.88,1.24.51,1.34-.6l.18-2c.1-1.07.88-1.47,1.31-.67l2.45,4.55c.41.77,1.16.43,1.29-.59l.35-2.72c.14-1,.91-1.37,1.32-.56L21.63,7.2c.38.77,1.11.52,1.29-.45.42-2.24,1-5.36,1.3-5.25a35.86,35.86,0,0,1,2.34,5.19c.35.88,1.14.69,1.34-.31l.8-4"/><path class="cls-1" d="M68.8,8.48,67.16,4.54c-.28-.68-.87-.73-1.19-.1l-1.52,3c-.33.63-.91.58-1.19-.11L61.4,2.75c-.29-.71-.9-.74-1.21-.06L58.4,6.53c-.41.88-1.24.51-1.34-.6l-.18-2c-.1-1.07-.88-1.47-1.3-.67L53.13,7.85c-.42.77-1.17.43-1.3-.59l-.35-2.72c-.14-1-.91-1.37-1.31-.56L48.56,7.2c-.39.77-1.12.52-1.3-.45-.41-2.24-1-5.36-1.3-5.25a37.05,37.05,0,0,0-2.34,5.19c-.35.88-1.13.69-1.34-.31l-.8-4"/></g></g></svg>