<svg xmlns="http://www.w3.org/2000/svg" viewBox="0 0 65.94 11.13"><defs><style>.cls-1{fill:#231f20;}</style></defs><g id="Layer_2" data-name="Layer 2"><g id="Layer_1-2" data-name="Layer 1"><path class="cls-1" d="M0,3V8.63A2.61,2.61,0,0,0,.73,10.4a2.57,2.57,0,0,0,1.77.73A2.55,2.55,0,0,0,5,8.63V3a2.61,2.61,0,0,0-.73-1.77A2.57,2.57,0,0,0,2.5.51,2.55,2.55,0,0,0,0,3Z"/><path class="cls-1" d="M3.41,4v0l-.25-.6a4.11,4.11,0,0,1,.23,1l-.09-.67a13.67,13.67,0,0,1,0,3.5l.09-.67a6,6,0,0,1-.24,1.12A2.5,2.5,0,0,0,8,9a10.05,10.05,0,0,0,.36-2,13.91,13.91,0,0,0,.08-1.7,13.44,13.44,0,0,0-.1-1.55c-.05-.4-.1-.82-.19-1.22a5.72,5.72,0,0,0-.4-1A2.49,2.49,0,0,0,6.23.35,2.55,2.55,0,0,0,4.3.6,2.53,2.53,0,0,0,3.15,2.09l-.09.67A2.54,2.54,0,0,0,3.41,4Z"/><path class="cls-1" d="M6.22,3.68a3.68,3.68,0,0,1,.21.87l-.09-.67a16.83,16.83,0,0,1,0,2.46,9.86,9.86,0,0,0,.08,1.44A5.63,5.63,0,0,0,7,9.64,2.51,2.51,0,0,0,11.55,9a2.82,2.82,0,0,0-.25-1.93L11.24,7l.25.6a2.85,2.85,0,0,1-.2-.8l.09.66c-.2-1.7.3-3.45-.34-5.1A2.7,2.7,0,0,0,9.89.85,2.6,2.6,0,0,0,8,.6,2.53,2.53,0,0,0,6.47,1.75a2.43,2.43,0,0,0-.25,1.93Z"/><path class="cls-1" d="M8.77,3.17a4.35,4.35,0,0,1,.23,1l-.09-.66a23,23,0,0,1,.16,3c0,1.18,0,2.46.85,3.38a2.61,2.61,0,0,0,1.77.73,2.5,2.5,0,0,0,1.77-4.27h0l.39.51v0l.25.6a1,1,0,0,1,0-.17l.09.67a24.81,24.81,0,0,1-.08-2.59c0-.53-.05-1.07-.11-1.6a7.6,7.6,0,0,0-.35-1.89A2.7,2.7,0,0,0,12.44.34,2.57,2.57,0,0,0,10.52.09,2.55,2.55,0,0,0,9,1.24a2.47,2.47,0,0,0-.25,1.93Z"/><path class="cls-1" d="M11.49,2.76V7.35a2.59,2.59,0,0,0,.73,1.77A2.57,2.57,0,0,0,14,9.85a2.53,2.53,0,0,0,1.77-.73,2.59,2.59,0,0,0,.73-1.77V2.76A2.59,2.59,0,0,0,15.76,1,2.57,2.57,0,0,0,14,.26,2.53,2.53,0,0,0,12.22,1a2.59,2.59,0,0,0-.73,1.77Z"/><path class="cls-1" d="M14.13,3.68a6.89,6.89,0,0,1,.26,1.11l-.09-.66a9.16,9.16,0,0,1,0,2.28l.09-.66a8.15,8.15,0,0,1-.26,1.19A2.5,2.5,0,0,0,15.88,10a2.56,2.56,0,0,0,1.92-.25A2.65,2.65,0,0,0,19,8.27a8.62,8.62,0,0,0,.25-1.12,12.59,12.59,0,0,0,.17-1.84,9.51,9.51,0,0,0-.12-1.51A7,7,0,0,0,19,2.35,2.61,2.61,0,0,0,17.8.85a2.51,2.51,0,0,0-3.42.9,2.55,2.55,0,0,0-.25,1.93Z"/><path class="cls-1" d="M17.36,2.5a29.29,29.29,0,0,1-.06,3.63l.09-.66a8.14,8.14,0,0,1-.19,1,2.5,2.5,0,0,0,1.74,3.08,2.6,2.6,0,0,0,1.93-.25A2.65,2.65,0,0,0,22,7.76a19.32,19.32,0,0,0,.34-5.26A2.61,2.61,0,0,0,21.63.73a2.51,2.51,0,0,0-3.54,0,2.64,2.64,0,0,0-.73,1.77Z"/><path class="cls-1" d="M20.39,4.78a1.54,1.54,0,0,1,.17.19l-.39-.51a1.68,1.68,0,0,1,.2.34l-.25-.59a2.52,2.52,0,0,1,.13.47L20.16,4a3.87,3.87,0,0,1,0,.9l.09-.66a14.61,14.61,0,0,1-.49,1.92A2.57,2.57,0,0,0,20,8.1a2.5,2.5,0,0,0,3.42.9,2.63,2.63,0,0,0,1.15-1.49,14.07,14.07,0,0,0,.6-2.78,4.34,4.34,0,0,0,0-.51A5.22,5.22,0,0,0,25,3.11a1.55,1.55,0,0,0-.08-.23,5.94,5.94,0,0,0-.34-.78,4,4,0,0,0-.31-.41,3.94,3.94,0,0,0-.36-.45A2.61,2.61,0,0,0,22.16.51a2.55,2.55,0,0,0-1.77.73A2.52,2.52,0,0,0,19.66,3a2.59,2.59,0,0,0,.73,1.77Z"/><path class="cls-1" d="M21.79,4.27l.12.24-.25-.6a3.71,3.71,0,0,1,.22.93l-.09-.66c.1.77.08,1.56.16,2.34a4.83,4.83,0,0,0,.52,1.94,2.88,2.88,0,0,0,1,1,2.85,2.85,0,0,0,2.12.26,2.54,2.54,0,0,0,1.5-1.15,2.51,2.51,0,0,0-.9-3.42,2.75,2.75,0,0,0-1.93-.25h0l.66-.09h-.08l.67.09h-.06l.6.25-.07,0,.51.39-.06,0,.39.5a.64.64,0,0,1-.08-.14l.25.6a2.13,2.13,0,0,1-.11-.5l.09.66c-.09-.63-.07-1.28-.12-1.92a12.14,12.14,0,0,0-.21-1.59,2.77,2.77,0,0,0-.12-.41,5.25,5.25,0,0,0-.41-.94A2.65,2.65,0,0,0,24.61.6a2.57,2.57,0,0,0-1.92.25,2.51,2.51,0,0,0-.9,3.42Z"/><path class="cls-1" d="M60.94,3V8.63a2.61,2.61,0,0,0,.73,1.77,2.5,2.5,0,0,0,4.27-1.77V3a2.58,2.58,0,0,0-.74-1.77A2.5,2.5,0,0,0,60.94,3Z"/><path class="cls-1" d="M58.21,1.5a6,6,0,0,0-.39,1c-.07.3-.11.61-.15.91a17,17,0,0,0-.15,1.88A15.37,15.37,0,0,0,57.6,7,10.44,10.44,0,0,0,58,9a2.63,2.63,0,0,0,1.15,1.49,2.5,2.5,0,0,0,3.67-2.82,8.25,8.25,0,0,1-.24-1.12l.09.67a13.23,13.23,0,0,1,0-3.5l-.09.67a3.68,3.68,0,0,1,.23-1l-.25.6V4a2.75,2.75,0,0,0,.25-1.93A2.53,2.53,0,0,0,61.63.6,2.49,2.49,0,0,0,59.71.35a2.39,2.39,0,0,0-1.5,1.15Z"/><path class="cls-1" d="M54.9,2.35c-.64,1.65-.14,3.4-.34,5.1l.09-.66a3.26,3.26,0,0,1-.21.8L54.7,7l-.06.12A2.65,2.65,0,0,0,54.39,9a2.53,2.53,0,0,0,1.15,1.49A2.51,2.51,0,0,0,59,9.64a5.24,5.24,0,0,0,.51-1.52,10.66,10.66,0,0,0,.13-1.78,18.36,18.36,0,0,1,0-2.46l-.09.67a3.7,3.7,0,0,1,.22-.87,2.55,2.55,0,0,0-.25-1.93,2.51,2.51,0,0,0-3.42-.9l-.51.39a2.53,2.53,0,0,0-.64,1.11Z"/><path class="cls-1" d="M52.34,1.84A7.82,7.82,0,0,0,52,3.7c-.07.54-.09,1.09-.11,1.63,0,.86,0,1.74-.08,2.59l.09-.67a1,1,0,0,1,0,.17l.25-.6,0,0,.39-.51h0a2.62,2.62,0,0,0-.74,1.77,2.58,2.58,0,0,0,.74,1.77,2.52,2.52,0,0,0,1.76.73A2.59,2.59,0,0,0,56,9.89c.89-.92.83-2.2.85-3.38a27.1,27.1,0,0,1,.16-3l-.09.66a4.37,4.37,0,0,1,.24-1A2.52,2.52,0,0,0,55.42.09a2.6,2.6,0,0,0-1.93.25,2.93,2.93,0,0,0-1.15,1.5Z"/><path class="cls-1" d="M49.45,2.76V7.35a2.59,2.59,0,0,0,.73,1.77,2.5,2.5,0,0,0,3.53,0,2.6,2.6,0,0,0,.74-1.77V2.76A2.56,2.56,0,0,0,53.71,1a2.5,2.5,0,0,0-3.53,0,2.59,2.59,0,0,0-.73,1.77Z"/><path class="cls-1" d="M47,2.35a6,6,0,0,0-.25,1.11,12.72,12.72,0,0,0-.17,1.85,15.65,15.65,0,0,0,.17,1.8A9.22,9.22,0,0,0,47,8.27a2.7,2.7,0,0,0,1.15,1.5,2.6,2.6,0,0,0,1.93.25A2.5,2.5,0,0,0,51.8,6.94a8.12,8.12,0,0,1-.25-1.19l.09.66a8.7,8.7,0,0,1,0-2.28l-.09.66a6,6,0,0,1,.25-1.11,2.55,2.55,0,0,0-.25-1.93A2.56,2.56,0,0,0,50.06.6a2.6,2.6,0,0,0-1.93.25A2.82,2.82,0,0,0,47,2.35Z"/><path class="cls-1" d="M43.57,2.5a19.32,19.32,0,0,0,.35,5.26,2.62,2.62,0,0,0,1.15,1.5,2.51,2.51,0,0,0,3.42-.9,2.65,2.65,0,0,0,.25-1.93,6.52,6.52,0,0,1-.19-1l.09.66a27.46,27.46,0,0,1-.07-3.63A2.57,2.57,0,0,0,47.84.73a2.5,2.5,0,0,0-3.53,0,2.65,2.65,0,0,0-.74,1.77Z"/><path class="cls-1" d="M42,1.24l-.17.19a5.3,5.3,0,0,0-.5.67,4.23,4.23,0,0,0-.42,1,4.63,4.63,0,0,0-.15,1.62,14.07,14.07,0,0,0,.6,2.78A2.58,2.58,0,0,0,42.51,9a2.55,2.55,0,0,0,1.93.25,2.51,2.51,0,0,0,1.5-1.15,2.57,2.57,0,0,0,.25-1.92,13.19,13.19,0,0,1-.49-1.92l.09.66a3.39,3.39,0,0,1,0-.9l-.09.66a1.57,1.57,0,0,1,.13-.47l-.25.59a1.63,1.63,0,0,1,.19-.34L45.37,5l.17-.19A2.56,2.56,0,0,0,46.28,3a2.58,2.58,0,0,0-.74-1.77A2.52,2.52,0,0,0,43.78.51,2.66,2.66,0,0,0,42,1.24Z"/><path class="cls-1" d="M39.83,1.75C38.93,3.21,39.18,5,39,6.61L39.06,6a1.74,1.74,0,0,1-.12.5l.25-.6a.39.39,0,0,1-.08.14l.39-.5a.12.12,0,0,1,0,0l.5-.39-.06,0,.59-.25h0l.66-.09H41l.67.09h0a2.67,2.67,0,0,0-1.92.25,2.54,2.54,0,0,0-1.15,1.5A2.5,2.5,0,0,0,40.3,9.76a2.8,2.8,0,0,0,2.12-.26,3,3,0,0,0,1-1A4.66,4.66,0,0,0,44,6.52c.09-.78.06-1.57.16-2.34l-.09.66a4.22,4.22,0,0,1,.23-.93l-.25.6a1.34,1.34,0,0,1,.12-.24,2.57,2.57,0,0,0,.25-1.92A2.58,2.58,0,0,0,43.25.85,2.55,2.55,0,0,0,41.32.6a2.66,2.66,0,0,0-1.49,1.15Z"/></g></g></svg>