<svg xmlns="http://www.w3.org/2000/svg" viewBox="0 0 58.28 9.02"><defs><style>.cls-1{fill:#231f20;}.cls-2{fill:#fff200;}</style></defs><g id="Layer_2" data-name="Layer 2"><g id="Layer_1-2" data-name="Layer 1"><path class="cls-1" d="M4.63,7.13A2.25,2.25,0,0,1,3.8,8l.07,0c-.9.5-.6.2-.37.17L3.76,8c.35-.09-.8.07-.25,0S4.64,8,5.21,8c1.57,0,3.15,0,4.73.06,2.74.09,5.48.31,8.22.32v-5C13.22,3.36,8.29,3,3.35,3V8c4.44,0,8.88-.4,13.32-.16L14.51,6.58l.08.12.39-3-.06.06L16,3.09a5.25,5.25,0,0,0-1.39.82,2.5,2.5,0,0,0,0,3.53,2.57,2.57,0,0,0,3.54,0l.14-.11L17.21,8a3.71,3.71,0,0,0,1.3-.76,2.53,2.53,0,0,0,.4-3A2.92,2.92,0,0,0,16.36,2.8c-.62,0-1.24,0-1.86-.06-1.24,0-2.48,0-3.72,0C8.3,2.85,5.83,3,3.35,3a2.52,2.52,0,0,0-2.5,2.5A2.55,2.55,0,0,0,3.35,8c4.94,0,9.87.38,14.81.39a2.53,2.53,0,0,0,2.5-2.5,2.55,2.55,0,0,0-2.5-2.5C13.44,3.36,8.72,2.73,4,3,2.67,3.12,1,3.27.31,4.61A2.54,2.54,0,0,0,1.21,8a2.53,2.53,0,0,0,3.42-.9Z"/><path class="cls-1" d="M40,7.13c-.59.8.18,0-.58.6a2.53,2.53,0,0,1,.23-.12c.35-.19-.61.16-.22.09a4.29,4.29,0,0,0,.44-.13c.28-.07.57-.12.85-.17.62-.13-.51,0,0,0l.48,0a43.27,43.27,0,0,1,5.22-.07c1.82.07,3.63.21,5.44.41l1.06.13c-.77-.1.35.05.59.09.55.09,1.1.19,1.64.33l.67-4.91A52.35,52.35,0,0,1,47,3c-2.49-.24-5-.63-7.34.42a2.51,2.51,0,0,0-.9,3.42,2.57,2.57,0,0,0,3.42.9c-.59.26.09,0,.25,0s.13,0-.12,0l.35,0q.83,0,1.65,0c1,.07,2.1.22,3.15.3a54.68,54.68,0,0,0,8.39.24,2.51,2.51,0,0,0,.66-4.92A49.13,49.13,0,0,0,45.79,2.25a35.89,35.89,0,0,0-5.39.18c-1.85.23-3.57.6-4.74,2.18A2.51,2.51,0,0,0,36.55,8,2.55,2.55,0,0,0,40,7.13Z"/><path class="cls-2" d="M52,0c-3.85.89-3.45,6.64-3.28,8.94,5.4.5,5-1.38,6.11-4.57.4-1.17,1.74-2.45.36-3.43a4.83,4.83,0,0,0-4.09-.6"/></g></g></svg>