<svg xmlns="http://www.w3.org/2000/svg" viewBox="0 0 70.35 24.82"><defs><style>.cls-1,.cls-2{fill:#fff;}.cls-1{stroke:#231f20;stroke-miterlimit:10;stroke-width:3px;}.cls-3{fill:#231f20;}</style></defs><g id="Layer_2" data-name="Layer 2"><g id="Layer_1-2" data-name="Layer 1"><rect class="cls-1" x="9.97" y="-0.67" width="20.66" height="27.32" rx="10.33" transform="translate(33.08 -7.31) rotate(90)"/><path class="cls-2" d="M8.53,7.14c1.6-.14,3.1-.33,4.74-.39s2.93-.18,4.4-.27c2.15-.13,4.25-.13,6.41-.07a37.83,37.83,0,0,0,3.84,0,22.06,22.06,0,0,0,3.7-.32c-.24-.35-1.07-.6-1.58-.82s-1.15-.56-1.82-.79a15.85,15.85,0,0,0-3.91-.86c-1.74-.16-3.49-.14-5.25-.17-1,0-2.06,0-3.06.07a20.56,20.56,0,0,0-3,.34,19.14,19.14,0,0,0-2.31.91c-.6.24-1.78.5-2,.9a15,15,0,0,0,3.27-.25c1.41-.14,2.79-.33,4.19-.47,1.93-.19,3.82-.32,5.78-.39.89,0,1.77-.11,2.63-.22" transform="translate(-0.21)"/><path class="cls-3" d="M8.53,9.64c4-.35,7.94-.71,11.91-.76s8,.45,11.84-.38a2.52,2.52,0,0,0,1.11-4.18,8.24,8.24,0,0,0-2.62-1.46A20.56,20.56,0,0,0,27.2,1.57,35.48,35.48,0,0,0,19.5,1a32.13,32.13,0,0,0-6.86.43A25.64,25.64,0,0,0,9.57,2.52,6,6,0,0,0,6.91,3.9,2.53,2.53,0,0,0,8.67,8.17a15.32,15.32,0,0,0,3.27-.25c1.33-.15,2.65-.31,4-.45,2.87-.3,5.76-.28,8.62-.63A2.57,2.57,0,0,0,27,4.34a2.51,2.51,0,0,0-2.5-2.5c-2.86.35-5.75.33-8.62.63-1.33.14-2.65.3-4,.45a14.93,14.93,0,0,1-3.27.25l1.77,4.27a.62.62,0,0,1-.35.18l.54-.19c.31-.11.62-.21.92-.33a12.19,12.19,0,0,1,2.74-.95A33.54,33.54,0,0,1,19.5,6a31.15,31.15,0,0,1,5.79.31,14.2,14.2,0,0,1,2.42.67c.57.21,1.11.51,1.67.74.07,0,.75.46.47.18L31,3.68A24.11,24.11,0,0,1,25.78,4c-1.92,0-3.84-.11-5.76-.07-3.83.07-7.68.41-11.49.75A2.56,2.56,0,0,0,6,7.14a2.51,2.51,0,0,0,2.5,2.5Z" transform="translate(-0.21)"/><path class="cls-2" d="M6.93,6.17A8.72,8.72,0,0,1,2.69,4,14.39,14.39,0,0,0,9.16,6.1c0-.56-.91-1.26-1.4-1.77a3.51,3.51,0,0,1-.9-1.6c0,.42,2.57,3.24,3.46,2.88.52-.22.52-1.29.62-1.64s0-1.07.32-1.49" transform="translate(-0.21)"/><path class="cls-3" d="M7.6,3.76a7.5,7.5,0,0,1-1.23-.35,2.34,2.34,0,0,0-.24-.09c.67.23.33.14.16.06l-.58-.29a10.13,10.13,0,0,1-1-.61c-.32-.22.42.36.21.17l-.18-.16a2.81,2.81,0,0,1-.29-.31l-3,3.93A13.14,13.14,0,0,0,4.9,7.75a19.38,19.38,0,0,0,4.26.85,2.49,2.49,0,0,0,2.5-2.5,3.89,3.89,0,0,0-.6-1.84A7.89,7.89,0,0,0,10,3c-.12-.11-.24-.22-.35-.34l-.22-.22c-.25-.26.09.16.13.18s-.23-.38-.28-.48c-.23-.39.12.42.07.19s0-.19-.08-.29a2.5,2.5,0,0,0-4.56-.6,2.87,2.87,0,0,0-.26,1.93A2.77,2.77,0,0,0,5,4.44,13.22,13.22,0,0,0,6,5.68,10.59,10.59,0,0,0,8.13,7.52a3.27,3.27,0,0,0,4.2-.35c1-1.08,1.05-2.71,1.23-4.09l-.09.66c0-.08,0-.16,0-.25-.19.39-.22.48-.1.25A2.53,2.53,0,0,0,12.53.32a2.54,2.54,0,0,0-3.42.9,6.07,6.07,0,0,0-.62,2.51l.09-.67c-.06.31-.11.61-.16.92,0,.15-.21.68,0,.22.11-.24.13-.28,0-.13l.29-.37.39-.29c.5-.18.65-.24.44-.19l.66-.09a.6.6,0,0,1-.19,0l.66.09-.21-.05c.73.14.58.27.35.14L10.39,3c-.32-.2.58.48.16.13L10.34,3l-.5-.47c-.28-.28-.54-.58-.79-.88s.46.63.21.27l-.11-.16L9.07,1.6c-.16-.25.25.76.2.46L4.45,3.39A6,6,0,0,0,6,6.14c.23.23.48.45.7.68s.46.53.17.17-.07-.11,0,0c.11.24-.23-.66-.13-.29L6.65,6V6.1l2.5-2.5-.59-.06.66.09A17.56,17.56,0,0,1,6,2.86c-.22-.08-.44-.19-.67-.25.64.17.3.13.09,0L5.1,2.47A8.9,8.9,0,0,1,4,1.79,2.48,2.48,0,0,0,2,1.54a2.59,2.59,0,0,0-1.3.9A2.52,2.52,0,0,0,.92,5.72,7.83,7.83,0,0,0,3.18,7.41,11.32,11.32,0,0,0,6.27,8.58a2.67,2.67,0,0,0,1.92-.25A2.5,2.5,0,0,0,7.6,3.76Z" transform="translate(-0.21)"/><rect class="cls-1" x="45.08" y="-0.67" width="20.66" height="27.32" rx="10.33" transform="translate(68.19 -42.41) rotate(90)"/><path class="cls-2" d="M43.64,6.25c1.59-.11,3.08-.26,4.71-.31,1.48-.05,2.91-.15,4.36-.22,2.13-.1,4.22-.1,6.36,0,1.24,0,2.56.06,3.81,0a28.43,28.43,0,0,0,3.67-.26A4.85,4.85,0,0,0,65,4.76c-.61-.21-1.14-.44-1.81-.62a19.61,19.61,0,0,0-3.87-.68c-1.73-.12-3.47-.11-5.22-.13-1,0-2,0-3,.06a21.56,21.56,0,0,0-3,.27,20,20,0,0,0-2.3.71c-.59.19-1.77.4-2,.71A19.82,19.82,0,0,0,47,4.89c1.39-.12,2.76-.27,4.15-.38,1.91-.15,3.79-.25,5.73-.31.88,0,1.76-.08,2.61-.17" transform="translate(-0.21)"/><path class="cls-3" d="M43.64,8.75c3.93-.28,7.88-.57,11.83-.61s7.88.34,11.75-.32a2.51,2.51,0,0,0,1.1-4.18,14.52,14.52,0,0,0-5.95-2.27A40.53,40.53,0,0,0,54.75.84a40.4,40.4,0,0,0-6.87.33,23.75,23.75,0,0,0-3,.86A7.11,7.11,0,0,0,42,3.32c-1.78,1.53-.2,4.11,1.77,4.26,2.35.18,4.85-.36,7.19-.55,2.84-.24,5.71-.23,8.55-.5A2.57,2.57,0,0,0,62,4a2.52,2.52,0,0,0-2.5-2.5c-2.84.27-5.71.26-8.55.5-2.34.19-4.84.73-7.19.55l1.77,4.27c-.63.34-.7.42-.23.24l.61-.16.89-.27A14.21,14.21,0,0,1,49,6a37.68,37.68,0,0,1,5.72-.18,37.71,37.71,0,0,1,5.72.25,16.94,16.94,0,0,1,2.62.63c.41.14.82.31,1.24.45s1.29.68.45,0L65.89,3a29.29,29.29,0,0,1-5.13.2c-1.91,0-3.81-.08-5.72-.05-3.8.06-7.61.33-11.4.6a2.56,2.56,0,0,0-2.5,2.5,2.53,2.53,0,0,0,2.5,2.5Z" transform="translate(-0.21)"/><path class="cls-2" d="M42.76,5.45a9.42,9.42,0,0,1-4.24-1.79A16.63,16.63,0,0,0,45,5.39c0-.45-.91-1-1.4-1.42a2.75,2.75,0,0,1-.9-1.29c0,.34,2.56,2.61,3.45,2.31.53-.17.53-1,.63-1.32s0-.85.32-1.19" transform="translate(-0.21)"/><path class="cls-3" d="M43.43,3a10.86,10.86,0,0,1-1.16-.26l-.65-.22-.25-.09-.07,0c.38.17.08,0,0,0L41,2.31l-.46-.25-.4-.25c-.26-.16.31.22.3.24l-.17-.16-3,3.93A18.7,18.7,0,0,0,45,7.89a2.37,2.37,0,0,0,2-1,2.57,2.57,0,0,0,.45-2.18,3.71,3.71,0,0,0-1.55-2.14c-.17-.14-1.08-.89-.33-.25-.13-.11-.26-.22-.38-.34s-.13-.14-.2-.21c.25.33.3.38.15.17-.29-.59.12.42,0,0A2.53,2.53,0,0,0,42,.27a2.56,2.56,0,0,0-1.75,3.07,4.15,4.15,0,0,0,1.45,2A10.81,10.81,0,0,0,43.9,6.92a3.48,3.48,0,0,0,4.17-.24c1-.91,1.14-2.36,1.3-3.61l-.09.66c0-.08,0-.16,0-.25-.19.4-.22.48-.08.26a2.48,2.48,0,0,0,.25-1.92A2.54,2.54,0,0,0,48.35.32a2.57,2.57,0,0,0-3.42.9,4.39,4.39,0,0,0-.59,2.1l.09-.67c0,.28-.11.56-.17.83,0,.06,0,.12,0,.19-.08.37.1-.23.14-.29-.15.27.24-.29.24-.29.65-.73,1.22-.56.78-.49l.67-.09a.81.81,0,0,1-.22,0l.67.09c-.15,0-.66-.23-.16,0s-.06-.05-.18-.12l-.5-.32A1.24,1.24,0,0,0,45.43,2c.11.05.55.43.21.16s-.51-.44-.75-.67l-.26-.28c-.22-.24.43.63.27.34s.25.74.2.49L40.28,3.34A5.1,5.1,0,0,0,42,5.84c.23.19.48.37.73.56-.67-.52-.17-.13,0,0A3.19,3.19,0,0,0,43,6.7c-.28-.38-.35-.47-.22-.27-.16-.48-.22-.6-.18-.37L45,2.89c-.36,0-.71-.06-1.07-.11l.67.09a21.18,21.18,0,0,1-3-.62q-.62-.18-1.23-.42c-.4-.16.1,0,.19.08a2.21,2.21,0,0,0-.27-.12,5.77,5.77,0,0,1-.55-.29,2.51,2.51,0,0,0-3,3.93A7.53,7.53,0,0,0,39,6.86a12.54,12.54,0,0,0,3.09,1A2.73,2.73,0,0,0,44,7.6a2.5,2.5,0,0,0,.9-3.42A2.4,2.4,0,0,0,43.43,3Z" transform="translate(-0.21)"/></g></g></svg>