<svg width="395" height="95" viewBox="0 0 395 95" fill="none" xmlns="http://www.w3.org/2000/svg">
<g clip-path="url(#clip0_501_60)">
<path d="M223.718 95.0431C248.401 95.0431 268.41 75.0356 268.41 50.3551C268.41 25.6745 248.401 5.66699 223.718 5.66699L194.905 5.66699C170.222 5.66699 150.213 25.6745 150.213 50.3551C150.213 75.0356 170.222 95.0431 194.905 95.0431H223.718Z" fill="#231F20"/>
<path d="M73.4626 95.0431C98.1452 95.0431 118.154 75.0356 118.154 50.3551C118.154 25.6745 98.1452 5.66699 73.4626 5.66699L44.6488 5.66699C19.9663 5.66699 -0.0428391 25.6745 -0.0428391 50.3551C-0.0428391 75.0356 19.9663 95.0431 44.6488 95.0431H73.4626Z" fill="#231F20"/>
<path d="M117.332 41.4435C114.044 42.8711 116.034 42.0059 116.899 41.7896L118.76 41.4435L115.904 41.8329C119.102 41.5957 122.312 41.5957 125.509 41.8329C129.264 41.7826 133.009 41.45 136.714 40.8379L133.859 41.2272C137.978 40.5644 142.164 40.4191 146.319 40.7946L143.464 40.4053C144.107 40.4892 144.743 40.6193 145.367 40.7946C146.232 40.7946 148.352 41.8761 145.064 40.4918C147.63 41.8353 150.591 42.2188 153.414 41.5733C154.796 41.1887 156.088 40.5353 157.217 39.6505C158.345 38.7657 159.288 37.667 159.992 36.4172C160.695 35.1674 161.145 33.7911 161.315 32.3673C161.486 30.9434 161.374 29.4998 160.985 28.1193C160.629 26.7612 160.006 25.4877 159.152 24.3735C158.297 23.2593 157.229 22.3266 156.01 21.6302C151.383 19.5869 146.356 18.611 141.3 18.7751C136.949 18.9891 132.615 19.4659 128.321 20.2027L131.177 19.8133C127.719 20.0298 124.251 20.0298 120.793 19.8133C118.679 19.7821 116.567 19.9268 114.477 20.2459C111.691 20.6119 108.978 21.3996 106.43 22.582C103.98 24.0035 102.191 26.3361 101.454 29.071C101.048 30.4515 100.922 31.8994 101.084 33.3292C101.247 34.759 101.694 36.1418 102.4 37.396C103.106 38.6501 104.056 39.7501 105.194 40.631C106.331 41.512 107.634 42.156 109.025 42.5251C111.837 43.1232 114.768 42.7416 117.332 41.4435Z" fill="#231F20"/>
<path d="M257.941 41.5734C279.573 39.4969 299.95 32.2724 321.366 29.8498C332.225 28.5952 342.998 27.3407 353.857 25.9563C364.716 24.572 374.191 21.1977 384.575 21.6303C398.506 22.3225 398.462 0.692229 384.575 6.14798e-05C373.759 -0.519064 363.462 2.85525 352.862 4.32611C342.262 5.79697 331.879 6.92174 321.366 8.13303C299.734 10.5556 279.357 17.7801 257.941 19.8566C255.093 19.9226 252.38 21.0832 250.366 23.0973C248.352 25.1114 247.191 27.8241 247.125 30.6717C247.136 33.5366 248.28 36.2808 250.306 38.3066C252.331 40.3324 255.076 41.4755 257.941 41.4869V41.5734Z" fill="#231F20"/>
</g>
<defs>
<clipPath id="clip0_501_60">
<rect width="395" height="95" fill="white"/>
</clipPath>
</defs>
</svg>
