<svg xmlns="http://www.w3.org/2000/svg" viewBox="0 0 15.23 37.17"><defs><style>.cls-1{fill:#f26331;}.cls-2{fill:#00a651;}</style></defs><g id="Layer_2" data-name="Layer 2"><g id="Layer_1-2" data-name="Layer 1"><path class="cls-1" d="M1.86,0,0,24c-.25,3.19,4,5.78,9,5.49h.16a5.37,5.37,0,0,0,2.14-.56,31.08,31.08,0,0,0,3.86-2.17c0-.16.43-4.36-6.47-3.12"/><path class="cls-2" d="M9,29.18c0,1.83.33,3.65.25,5.49a2.52,2.52,0,0,0,2.5,2.5,2.55,2.55,0,0,0,2.5-2.5C14.3,32.83,14,31,14,29.18a2.61,2.61,0,0,0-.73-1.77,2.57,2.57,0,0,0-1.77-.73,2.53,2.53,0,0,0-1.77.73A2.59,2.59,0,0,0,9,29.18Z"/></g></g></svg>