<svg xmlns="http://www.w3.org/2000/svg" viewBox="0 0 31.2 49.77"><defs><style>.cls-1{fill:#f26331;}.cls-2{fill:#fff200;}</style></defs><g id="Layer_2" data-name="Layer 2"><g id="Layer_1-2" data-name="Layer 1"><path class="cls-1" d="M7.47,0,4.27,30.41C3.61,33.88-2.3,45.62,1,46.92c13.81,5.44,17.2,1.52,20.62.94l3.64-.62a7.31,7.31,0,0,0,5.91-5.5h0c.41-1.69-2.2-2.94-4.29-2.05L18,43.48"/><path class="cls-2" d="M22.61,49.32c2.74-1.36.58-4.46-.3-5.69-4.41.95-3.49,1.9-3.33,3.92.06.73-.58,1.75.81,2a5.41,5.41,0,0,0,3.42-.59"/></g></g></svg>