<svg xmlns="http://www.w3.org/2000/svg" viewBox="0 0 26.47 37.62"><defs><style>.cls-1{fill:#f26331;}.cls-2{fill:#00aeef;}</style></defs><g id="Layer_2" data-name="Layer 2"><g id="Layer_1-2" data-name="Layer 1"><path class="cls-1" d="M7.76,0,7.09,10.68a41.33,41.33,0,0,1-5.47,18C.62,30.47-.11,31.94,0,32.46c.74,3.06,3.43,6.88,12.73,4.31,6.91-1.91,4.08-6.62,7.66-7.26s8-6.42,5.15-9c-2-1.77-4.64-2.7-7.54.63"/><path class="cls-2" d="M21.5,27h.26a1,1,0,0,0,.48-.11.9.9,0,0,0,.4-.26,1,1,0,0,0,.26-.4.89.89,0,0,0,.11-.48L23,25.45a1.23,1.23,0,0,0-.32-.55l-.25-.19a1.19,1.19,0,0,0-.63-.17H21.5a1,1,0,0,0-.48.1,1.15,1.15,0,0,0-.66.66,1,1,0,0,0-.11.49l.05.33a1.23,1.23,0,0,0,.32.55l.25.19a1.31,1.31,0,0,0,.63.18Z"/></g></g></svg>