<svg xmlns="http://www.w3.org/2000/svg" viewBox="0 0 20.85 32.99"><defs><style>.cls-1{fill:#f26331;}.cls-2{fill:#231f20;}</style></defs><g id="Layer_2" data-name="Layer 2"><g id="Layer_1-2" data-name="Layer 1"><path class="cls-1" d="M6.53,0,2.44,23.78s-3.53,13,9,8.09c1.4-.55-1.17-6.64,4.63-4.1,1,.44,5.16-5.82,4.75-7.48-.7-2.81-7.57.23-9.26,2.8"/><path class="cls-2" d="M3.37,27.82a1.88,1.88,0,0,0,0-3.75,1.88,1.88,0,0,0,0,3.75Z"/><path class="cls-2" d="M2.45,25.29A5.58,5.58,0,0,0,.32,24.4a.25.25,0,0,0-.31.18.25.25,0,0,0,.17.3c.34.13.69.21,1,.31a2,2,0,0,1,.87.46c.23.22.59-.13.36-.36Z"/><path class="cls-2" d="M3.13,24.51,1.44,23a.25.25,0,0,0-.35,0,.26.26,0,0,0,0,.36l1.69,1.56a.25.25,0,1,0,.35-.36Z"/><path class="cls-2" d="M1.68,25.6l-.33.19a.56.56,0,0,1-.17.09l-.09.05L1,26S1,26,1,26L.87,26l-.18.07-.37.09a.25.25,0,1,0,.13.49A4.63,4.63,0,0,0,1.93,26,.25.25,0,0,0,2,25.69a.26.26,0,0,0-.34-.09Z"/></g></g></svg>