<svg xmlns="http://www.w3.org/2000/svg" viewBox="0 0 91.01 71.77"><defs><style>.cls-1{fill:#231f20;}.cls-2{fill:#f26331;}</style></defs><g id="Layer_2" data-name="Layer 2"><g id="Layer_1-2" data-name="Layer 1"><path class="cls-1" d="M7.89,60.87a101.74,101.74,0,0,1,13-36.42c7.86-13.21,26.5-24,41.75-21.63C70.83,4.09,77.1,9.73,81.26,16.76c4.34,7.32-.56,12.32.87,20.57,1,5.62,4.27,14,2.83,19.79C82.38,67.44,69,58.77,63,57c-11.42-3.37-19.36-5-30.95-1.75-8.93,2.54-14.93,9.42-22.94,12.6-1.08-1.41-.45-2,.42-3"/><path class="cls-1" d="M10.3,61.53a102.54,102.54,0,0,1,7.63-25.95,77.42,77.42,0,0,1,6.33-11.72,41.18,41.18,0,0,1,7.08-7.78C41.51,7.24,58.55.31,70.88,8.82a27.92,27.92,0,0,1,7.43,7.92,13,13,0,0,1,2.19,5,14.64,14.64,0,0,1-.15,4.48C79.71,30.18,79,34,79.72,38c.64,3.78,1.88,7.43,2.6,11.19.57,3,.93,6.61-.51,9.09-.25.43,0,.08-.32.4-.12.11-.63.51-.24.25a5.89,5.89,0,0,1-.64.37c-.33.18.36-.12,0,0l-.52.16c-.14,0-.76.14-.53.12a7,7,0,0,0-.7,0,8.77,8.77,0,0,1-1.54-.11c-5.75-1-10.32-4-15.94-5.56a77.67,77.67,0,0,0-13-2.72,43.5,43.5,0,0,0-12.88.64,39.18,39.18,0,0,0-12.31,4.61c-3.42,2-6.58,4.42-10,6.49a33.43,33.43,0,0,1-4.78,2.5l2.82,1.15c-.92-1.32.69.85-.37.52-.08,0,.3-.38.39-.48a2.55,2.55,0,0,0,0-3.54,2.52,2.52,0,0,0-3.53,0c-1.61,1.85-2.33,3.83-.81,6a2.55,2.55,0,0,0,2.83,1.15c7.76-3.15,13.8-9.57,21.77-12.23A39.27,39.27,0,0,1,45,56a54.31,54.31,0,0,1,12.84,2.15c1.92.52,3.87,1,5.74,1.7,1.38.51,2,.81,3.25,1.34a45.25,45.25,0,0,0,8.78,3.06c2.79.54,5.91.61,8.33-1.12,3-2.16,3.92-6,3.87-9.54-.07-4.26-1.25-8.43-2.29-12.53a34,34,0,0,1-1.11-5.38,23,23,0,0,1,.32-5.61c.65-3.87,1.43-7.76.06-11.58A29.43,29.43,0,0,0,77.7,8.06a27.46,27.46,0,0,0-21.83-8A47.43,47.43,0,0,0,33.3,8.33,50.49,50.49,0,0,0,17.05,26.17,103.67,103.67,0,0,0,6.82,53.24c-.52,2.3-1,4.63-1.34,7a2.58,2.58,0,0,0,1.75,3.08,2.53,2.53,0,0,0,3.07-1.75Z"/><rect class="cls-2" x="0.06" y="52.85" width="90.89" height="17.33" rx="6.38" transform="translate(-2.46 1.9) rotate(-2.32)"/></g></g></svg>