<svg xmlns="http://www.w3.org/2000/svg" viewBox="0 0 109.61 131.66"><defs><style>.cls-1{fill:#231f20;}.cls-2{fill:#f26331;}</style></defs><g id="Layer_2" data-name="Layer 2"><g id="Layer_1-2" data-name="Layer 1"><path class="cls-1" d="M79.3,68.73a24.75,24.75,0,0,0-2.16,7.12,19.26,19.26,0,0,0,.11,7.64c.49,1.76,1.94,3,2.52,4.78.62,1.9.37,3.92.44,5.89a15.77,15.77,0,0,0,1.8,7c.83,1.57,1.87,3,2.1,4.83.45,3.55-.11,7.28-.07,10.86s.31,7.8,2.34,11a8.17,8.17,0,0,0,4.54,3.7,4.12,4.12,0,0,0,4.72-2.3,11.8,11.8,0,0,0,1-5.13,16.47,16.47,0,0,0-.36-3.28,9,9,0,0,1-.37-3.17c0-.11.25-.7.2-.79s.1,0-.12.16a4.16,4.16,0,0,1-.75.48s-.69.14-.25.08c-.53.07-.15,0,.21,0a13.34,13.34,0,0,0,1.55.16,28.81,28.81,0,0,0,5.41-.32,9.11,9.11,0,0,0,5.27-2.64,9.72,9.72,0,0,0,2.22-6.51c.08-4.66-1.27-10-4.21-13.63v3.53A11.22,11.22,0,0,0,108.63,91a10.79,10.79,0,0,0-3-7.24,14.78,14.78,0,0,0-3.24-2.66c-.73-.44-1.69-.82-2-1.43a4.82,4.82,0,0,1-.19-2.36,6.64,6.64,0,0,0-.87-3.51c-2.48-4.41-8.32-6.35-13.14-5.88-4.21.41-6.4,3.94-7.5,7.68a41.76,41.76,0,0,0-1.38,11.89c0,2.78,4.22,3.45,4.91.66,1.15-4.6.5-9.48,2-14l-4.91-.66c.4,4.93-.13,9.88.14,14.82.15,2.73,4.18,3.51,4.91.67a55.28,55.28,0,0,0,1.39-13.63c0-3.22-5-3.22-5,0,0,6.3-.8,13,1.45,19a2.52,2.52,0,0,0,4.82,0,23.87,23.87,0,0,0,.81-9.06,47.14,47.14,0,0,0-1.42-9.09c-.77-2.86-4.67-2-4.92.66-.36,4.08.4,8.12.9,12.15.43,3.52.12,7.57,2.39,10.53,1.46,1.91,4.55,1.4,4.66-1.26C89.65,91.46,87.3,85,87,78.2H82c.52,8.49.12,17.37,3.69,25.3a2.51,2.51,0,0,0,2.82,1.14,2.58,2.58,0,0,0,1.83-2.41,66.37,66.37,0,0,0-1.65-21.16c-.71-2.83-4.77-2.08-4.91.66a73.26,73.26,0,0,0,3.36,26.39,2.51,2.51,0,0,0,4.91-.66c.49-5.45-1-10.78-1.81-16.12a2.51,2.51,0,0,0-2.41-1.84,2.59,2.59,0,0,0-2.41,1.84c-1.26,3.39-.77,7.29-.21,10.77s1.52,7,2.35,10.4c.66,2.78,4.89,2.13,4.91-.66,0-3.35-1.35-6.86-.52-10.17L87.06,101c.39,5-.37,10,.56,15,.4,2.11,3.61,2.42,4.57.6a20.74,20.74,0,0,0,2-9.75c0-2.76-4.3-3.49-4.91-.67-.89,4.15-1.6,8.8-.43,13,.8,2.87,4.64,2,4.91-.66a50.35,50.35,0,0,0-.34-9.66,2.52,2.52,0,0,0-2.17-2.45,2.47,2.47,0,0,0-2.74,1.79c-.71,3.59-.37,7.18-.35,10.8,0,3.22,5,3.23,5,0,0-2.44,0-4.88,0-7.32,0-2.85-4.13-3.36-4.91-.67a19.41,19.41,0,0,0,.58,12.57c.9,2.09,4,1.26,4.57-.6.92-3,.64-6.31.72-9.44.07-2.37-3.58-3.55-4.65-1.26-1.54,3.27-1.33,6.59-.6,10,.46,2.15,3.53,2.37,4.57.59A13.92,13.92,0,0,0,95,118.41c.2-1.08.31-2.76,1-3.59l-4.18-1.11c.73,2.79,1.33,6.2,3.61,8.19a2.55,2.55,0,0,0,3.93-.51c1.59-2.26,1-4.93-.37-7.12s-5.57-.85-4.57,1.92A7.66,7.66,0,0,0,98,120.66a19,19,0,0,0,5,1.44c1.69.36,3.81-1.17,3.08-3.08a8.53,8.53,0,0,0-4.27-4.72A2.53,2.53,0,0,0,98,117.12a7.59,7.59,0,0,0,5.27,5.34,2.58,2.58,0,0,0,3.07-1.75c1-2.3-.18-4.75-1.94-6.29a2.51,2.51,0,0,0-3.93,3,10,10,0,0,0,1.27,1.94,2.54,2.54,0,0,0,4.32,0c1.49-2.39,1.07-5.2.5-7.81-.52-2.39-4.29-2.37-4.82,0-.66,2.91-.76,6,1.34,8.37,1.38,1.54,3.53.5,4.17-1.11.78-1.91.36-4.28-.11-6.21a30.43,30.43,0,0,0-2-5.72,2.53,2.53,0,0,0-2.83-1.15,2.58,2.58,0,0,0-1.83,2.41,32.64,32.64,0,0,0,.07,6.48,2.56,2.56,0,0,0,1.54,2.28,2.49,2.49,0,0,0,2.73-.51c2.26-2.57,2.09-6.17,1.53-9.33A21.26,21.26,0,0,0,103,98.47a2.53,2.53,0,0,0-4.56.6c-1.28,4.3.36,8.86,1.82,12.9.5,1.39,2.24,2.48,3.67,1.49,3-2,2.84-5.71,2.2-8.89A33.3,33.3,0,0,0,103,95.94a2.55,2.55,0,0,0-3.42-.89c-3.44,1.74-4.19,7.19-2.59,10.36a2.52,2.52,0,0,0,2.82,1.15c5.68-2,4.56-8.47,2.82-12.91-.71-1.8-3.54-2.73-4.57-.6a10.72,10.72,0,0,0,.13,9.47,2.53,2.53,0,0,0,3.93.51c3.53-3.27,2-9.45,0-13.11-1.23-2.24-4.58-1.15-4.66,1.26-.09,3.08-1,5.88.51,8.81a2.53,2.53,0,0,0,3.42.89c4.69-2.82,3.11-9.87,2-14.19a2.52,2.52,0,0,0-3.67-1.5,6.36,6.36,0,0,0-2.75,5.48A5.33,5.33,0,0,0,100.21,96,2.49,2.49,0,0,0,103,94.8c1.37-3.11,2.59-9.52-1-11.66-4.41-2.66-9.54,4.76-7.24,8.58a2.53,2.53,0,0,0,3.92.5c4.36-4,1.95-11.85-2.74-14.54a2.56,2.56,0,0,0-3.42.89,16.18,16.18,0,0,0-2,4l4.91.67a21,21,0,0,0-.1-5.26,4.92,4.92,0,0,0-4.66-3.88c-1.93-.17-3.06,2.24-2.16,3.76.19.32.39.62.57.94a2.54,2.54,0,0,0,4.32,0,7.34,7.34,0,0,0,.9-6.82,2.58,2.58,0,0,0-3.07-1.74c-3.24.56-5,4.14-4.48,7.17a2.51,2.51,0,0,0,3.67,1.49,4.91,4.91,0,0,0,2.22-5.45,6.55,6.55,0,0,0-3.52-4,2.6,2.6,0,0,0-3,.4A8.77,8.77,0,0,0,83.94,74a33.26,33.26,0,0,1-.86,4.2c-.68,1.94,1.35,3.41,3.08,3.08,4.49-.87,4.8-7.67,2.2-10.47a2.52,2.52,0,0,0-3-.4C81.12,73,78.5,80.93,83.17,84.2a2.5,2.5,0,0,0,2.52,0c3.38-1.58,4.2-5.7,4.07-9.07a2.5,2.5,0,0,0-5,0,82.89,82.89,0,0,0-.65,9c.12,3.38,1.2,8,5.48,7.89A2.53,2.53,0,0,0,92,90.22a34.07,34.07,0,0,0,0-11.53A2.47,2.47,0,0,0,89.3,76.9a2.55,2.55,0,0,0-2.17,2.45c-.88,7-2.36,16.55,3.47,21.86a2.55,2.55,0,0,0,3.93-.51c1.57-2.19,1.69-5.32,1.7-7.92S96,87.61,95.83,85a2.52,2.52,0,0,0-4.66-1.27C89,87,88.84,91.18,89.34,94.9a29.13,29.13,0,0,0,3.6,10.88c.86,1.47,3.54,1.78,4.31,0,2.11-4.85,1-10.68-.53-15.55-.67-2.15-4.44-2.6-4.82,0a46.44,46.44,0,0,0-.54,9c.14,3,.52,6.36,2.24,8.91a2.53,2.53,0,0,0,4.32,0c1.85-3.47,1.41-7.23,1.35-11,0-3.23-4.91-3.22-5,0-.09,3.48,0,7.24,1.2,10.54a2.54,2.54,0,0,0,4.57.6c1.34-2,1.08-4.52.88-6.77a2.59,2.59,0,0,0-1.84-2.41,2.49,2.49,0,0,0-2.82,1.15c-1.5,3.45-2.16,7.7-.3,11.15a2.52,2.52,0,0,0,4.32,0,14.6,14.6,0,0,0,2-6.75c.2-2.46-3.56-3.42-4.66-1.26-1.61,3.16-3.16,8.15.61,10.43,1.53.93,3.07-.06,3.68-1.49a12.1,12.1,0,0,0,.69-7.39c-.56-2.28-3.37-2.22-4.57-.6-1.44,2-1.72,4.59-1.69,7A2.52,2.52,0,0,0,101,112.6a11.63,11.63,0,0,0,1.61-7.43A2.52,2.52,0,0,0,98,103.91c-1.58,2.2-1.38,5.25-1.6,7.82S99.86,115,101,113c2.86-5,1.67-11.25.77-16.59-.46-2.74-.71-5.33-1.14-8.06-.56-3.55-1.77-7-2.57-10.47a2.51,2.51,0,0,0-3.67-1.49c-2.4,1.54-4.73,2.93-5.5,5.89-.82,3.11,4,4.44,4.82,1.33.39-1.51,2-2.12,3.21-2.91L93.28,79.2c.73,3.2,1.8,6.33,2.41,9.56.49,2.6.67,5.26,1.12,7.88a63.31,63.31,0,0,1,1,7.5,11.69,11.69,0,0,1-1.06,6.33l4.66,1.26c.14-1.72,0-4,.92-5.3l-4.66-1.26a7.33,7.33,0,0,1-.93,4.9l4.66,1.26a7,7,0,0,1,1-4.43l-4.57-.59a7.77,7.77,0,0,1-.7,4.73l3.68-1.5.06.06c.19.19.08-.16.06.06a6,6,0,0,1,.12-1.16A11.31,11.31,0,0,1,102,106l-4.66-1.26A9.21,9.21,0,0,1,96,108.92h4.32c-.91-1.68-.42-4.45.3-6.11l-4.66-1.26c.11,1.29.5,3.21-.2,4.24l4.57.6c-1.1-2.92-1.1-6.13-1-9.21h-5c0,2.74.68,6-.67,8.49h4.32c-1.22-1.8-1.49-4.38-1.58-6.74,0-1.35,0-2.71.06-4.06q.06-.93.15-1.86c0-.33.06-.66.1-1,0-.18,0-.18,0,0,0-.16,0-.32.07-.48H91.9a33.47,33.47,0,0,1,1.35,6.09c.19,1.75.35,4.07-.31,5.6h4.31a24.44,24.44,0,0,1-3-8.82c-.41-2.82-.35-5.87,1.21-8.14L90.83,85c.12,2.36.37,4.72.4,7.09a23.9,23.9,0,0,1-.17,3.65c0,.35-.21,1-.33,1.44a2.29,2.29,0,0,1-.52,1l3.93-.51c-2.18-2-2.69-5.16-2.77-8.17a66.41,66.41,0,0,1,.76-10.15L87.22,80a26.68,26.68,0,0,1,0,8.87l2.41-1.83h-.17c-.23,0-.23,0,0,0a1.71,1.71,0,0,0,.18,0c.45.12-.07-.08-.1-.08s.46.32.16.09.2.29,0,.06a1.78,1.78,0,0,1-.17-.3c-.09-.28.14.46,0,0,0-.12-.08-.24-.11-.37-.09-.3-.15-.61-.21-.92s0,.37,0-.12c0-.16,0-.31,0-.47a20.61,20.61,0,0,1-.06-2.36c.05-2.53.47-5,.66-7.53h-5c.07,1.83,0,4-1.59,4.76h2.52c.27.18,0-.07,0-.08.17,0,.11.25,0-.07.06.2,0,.05,0-.28a5.06,5.06,0,0,1,.39-2,8.59,8.59,0,0,1,.9-1.75,2,2,0,0,1,.49-.62,3.34,3.34,0,0,1,.33-.32c.29-.26-.45.28.07,0l-3-.39c-.29-.31.09.12.14.26-.11-.34,0,.13,0,.24s0-.14,0,.27A4.47,4.47,0,0,1,85,76c.07-.39-.36.92-.16.49-.15.23-.17.27-.06.14s.07-.1-.1.09c0-.16.71-.3.16-.2l3.07,3.08c.68-2,.34-4.67,1.82-6.25l-3,.39a2.18,2.18,0,0,1,1.13.88c.22.38,0,.1.17,0l3.67,1.5c.06.29.13-.23,0-.09.48-.82-.33.27.24-.54.23-.32.34-.33.71-.39L89.57,73.3a2.8,2.8,0,0,1-.4,3h4.32c-.18-.32-.39-.63-.57-.94l-2.16,3.76c-.19,0,.3.22-.13,0s-.12-.1-.12-.12a6.47,6.47,0,0,1,.14,1c0,1.1-.11,2.2-.13,3.31-.06,2.94,4,3.23,4.91.66a11.35,11.35,0,0,1,1.49-2.79L93.5,82a5.56,5.56,0,0,1,2.34,3.34c.37,1.37.3,2.51-.61,3.36l3.93.5c.11.36.13.4,0,.12.05.35.07.37.06.07-.19.55.1-.23.11-.26.1-.27.12-.32,0-.12a5.39,5.39,0,0,1,.25-.48c0-.06.42-.65.22-.39,0-.06.7-.79.38-.47.23-.23.56-.08.16-.12a2.81,2.81,0,0,1-1-.16.76.76,0,0,1-.3-.29c.13.24.12.22,0,0a5.13,5.13,0,0,0,.16.65c-.08-.49,0,.5,0,.6,0,.27,0,.54,0,.81a6.72,6.72,0,0,0,0,.7,14.43,14.43,0,0,1-.33,1.74c-.05.2-.11.4-.17.61s-.36.92,0,.13l2.82-1.15.49.32c-.17,0,0-.37,0,0,0,0-.14-.78-.09-.33a4.85,4.85,0,0,1,0-.66c0-.43-.14.48,0-.26,0-.06.21-.65.12-.43s.18-.31.21-.36c-.19.35.31-.11-.11.15L98.49,88a26.66,26.66,0,0,1,.93,5,9.83,9.83,0,0,1-.06,2.36c0,.21-.1.42-.17.63-.24.74.1-.19-.08.19-.08.15-.31.43-.08.16-.31.37.22-.09-.22.17l3.42.9a5.29,5.29,0,0,1-.17-2.82c.12-1.15.31-2.3.34-3.46l-4.65,1.26a10.59,10.59,0,0,1,1.39,5.83c0,.13-.28.93-.17.7-.22.46-.18.31-.41.52l3.93.51a5.43,5.43,0,0,1-.14-4.43L97.79,95c.26.67.51,1.36.72,2.06.13.44.26.88.36,1.33l.17.87a9.88,9.88,0,0,1,0,1.22,4.55,4.55,0,0,1,0,.52c.06-.35,0,.07-.08.2.06-.15-.25.48-.08.25a1.21,1.21,0,0,1-.43.31l2.82,1.15c.22.42,0-.18-.07-.29-.13-.76,0,.43,0-.4a4.15,4.15,0,0,1,.09-1.22,4.52,4.52,0,0,1,.38-1.15c0-.09.47-.6.2-.32.34-.36-.21.08.24-.15l-3.42-.89c.23.44.45.9.66,1.36s.24.53.47,1.13a33.53,33.53,0,0,1,1.23,3.75,11.51,11.51,0,0,1,.49,3.32,6.16,6.16,0,0,1-.05.75c.08-.52-.07.19-.09.24-.18.55.21-.26-.07.17q-.24.34,0,0c-.2.19-.18.18,0,0l3.68,1.5c-1.12-3.1-2.81-6.91-1.82-10.24l-4.57.6a16.8,16.8,0,0,1,2.66,6.46,13.7,13.7,0,0,1,.39,3.51,7.72,7.72,0,0,1-.06.84c.06-.4-.07.29-.09.36s-.25.71-.07.31c-.06.13-.56.79-.21.4l4.26,1.77a32.64,32.64,0,0,1-.07-6.48l-4.66,1.26a26.59,26.59,0,0,1,1.46,4.2,12,12,0,0,1,.41,2.22,2.68,2.68,0,0,1-.22,1.66l4.18-1.1c-.68-.77-.27-2.55-.05-3.5h-4.82c.27,1.25.72,2.79,0,4h4.32a9.82,9.82,0,0,1-1.27-1.94l-3.92,3c.56.49.94.72.65,1.42l3.08-1.75a2.45,2.45,0,0,1-1.77-1.84l-3.68,2.82a3.76,3.76,0,0,1,2,1.74l3.07-3.07a24.34,24.34,0,0,1-3.59-.85,2.45,2.45,0,0,1-1.49-1.57l-4.57,1.93c.49.77.92,1.29.37,2.08l3.93-.51c-1.45-1.27-1.82-4-2.33-6-.43-1.66-3-2.62-4.17-1.1A10.94,10.94,0,0,0,90.33,116a13.57,13.57,0,0,1-1.2,4.39l4.57.6c-.42-2-.81-4.27.09-6.2l-4.66-1.26c-.07,2.68.24,5.51-.55,8.11l4.57-.6c-1-2.32-.82-6.11-.07-8.71l-4.91-.66c0,2.44,0,4.88,0,7.32h5c0-3.13-.44-6.37.17-9.47l-4.91-.67a50.35,50.35,0,0,1,.34,9.66l4.91-.67c-.92-3.28-.27-7,.43-10.3l-4.91-.66a15.39,15.39,0,0,1-1.32,7.22l4.57.6c-.84-4.51,0-9.16-.38-13.71-.21-2.68-4.19-3.56-4.91-.67-1,3.88.37,7.61.34,11.5l4.91-.67c-.77-3.21-1.64-6.4-2.22-9.66-.52-2.93-.93-6.14.08-8.86H85.44c.72,4.93,2.08,9.77,1.63,14.8l4.91-.67A69.29,69.29,0,0,1,88.8,81.73l-4.91.67a61.8,61.8,0,0,1,1.47,19.83L90,101c-3.14-7-2.54-15.29-3-22.77-.2-3.19-5.13-3.23-5,0,.28,6.76,2.63,13.28,2.34,20.07L89,97c-1.83-2.4-1.45-6-1.82-8.86-.49-3.74-1.13-7.51-.79-11.3l-4.91.67a39.87,39.87,0,0,1,1.25,7.76A20.06,20.06,0,0,1,82.12,93h4.82c-2.1-5.62-1.29-11.83-1.27-17.69h-5a49.35,49.35,0,0,1-1.21,12.3l4.91.66c-.27-4.94.26-9.89-.14-14.82a2.51,2.51,0,0,0-4.91-.67c-1.5,4.55-.85,9.4-2,14l4.91.67a44.49,44.49,0,0,1,.64-8.24c.15-.73.32-1.46.52-2.18.11-.39.24-.78.37-1.16.06-.17.12-.33.19-.49-.12.3.06-.12.11-.23a8.68,8.68,0,0,1,.46-.85,5.29,5.29,0,0,1,.32-.5c-.06.09-.29.33,0,0a5,5,0,0,1,.61-.61c-.38.32.37-.21.54-.28-.49.21.24,0,.4-.05-.37.05.74,0,.83,0a11.12,11.12,0,0,1,2.76.3,8,8,0,0,1,4.53,2.53,3.78,3.78,0,0,1,.5.78,2.94,2.94,0,0,1,.14.53c-.06-.42,0,0,0,.07a14.28,14.28,0,0,0,.09,2.85,7.07,7.07,0,0,0,3.72,5c1.82,1.09,3.62,2.39,4.4,4.46s-.14,3.84-1.5,5.35a2.58,2.58,0,0,0,0,3.53,15.15,15.15,0,0,1,1,1.73,16.53,16.53,0,0,1,.88,2.44,20.43,20.43,0,0,1,.89,5.31,10.24,10.24,0,0,1-.1,1.9,4.76,4.76,0,0,1-.66,1.69,2.62,2.62,0,0,1-1.35,1c.32-.14-.57.15-.65.17a7.67,7.67,0,0,1-1.06.22l-.72.07-1.13.06c-.79,0-1.57,0-2.35,0s.16.06-.39,0a9.18,9.18,0,0,0-1.17-.18,3.52,3.52,0,0,0-2.1.52c-1.67,1.06-2.2,3.63-2.11,5.46.11,2,.82,3.91.77,5.94,0,.31,0,.62,0,.94a5,5,0,0,1,0,.53c0-.38,0,0,0,.1a7.55,7.55,0,0,1-.26.93c.21-.53,0,0,0,0-.13.21-.14.23,0,.07a.41.41,0,0,1,.2-.19,3.47,3.47,0,0,1,.57-.19c.5-.12-.31.12.1,0,.25-.07.24.25.15,0a2,2,0,0,0-.4-.24,3.7,3.7,0,0,1-1.14-1.26c-1.48-2.41-1.58-5.81-1.59-8.86,0-3.29.32-6.59.11-9.88a13.66,13.66,0,0,0-1.56-5.55,18.78,18.78,0,0,1-2.2-4.8c-.42-2.12-.07-4.34-.29-6.49a14,14,0,0,0-2.47-6.54c-.18-.28-.37-.55-.53-.84s.11.4,0,0c0-.2-.11-.4-.14-.6a19.75,19.75,0,0,1-.07-3.46,18.34,18.34,0,0,1,1.73-6.94,2.57,2.57,0,0,0-.89-3.42,2.53,2.53,0,0,0-3.43.89Z"/><path class="cls-1" d="M15.15,61.14c-8.72.41-15.4-20-6.56-20.19C2.89,37.33-.55,33,1,26.8c.71-2.9,2.78-6.26,6.22-7.28,2.22-.66,7.42-.62,8.88,1C9.93,15.9,21.07,8.8,25.12,7,30.91,4.33,41.38,2.07,45,9c-1.12-4.14,1.86-5,6.23-6.22,4.08-1.19,10.94-3.6,14.84-1.17,7.84,4.9,1.31,11.65-1.69,16.45,5.5-.81,9.56-2.56,14.24,1.15,5.48,4.34,1.49,6.92-2.52,10.71,12.68-3.53,17.4,10.7,8.42,16.82,7.11-2.67,8.81,6.81,6,10.4-2.11,2.73-8.52,1.28-11.31,3.68"/><path class="cls-1" d="M15.15,60.52c-4.72.14-7.88-5.33-9.19-9.2-1-3-2.18-9.57,2.63-9.74a.64.64,0,0,0,.32-1.17c-2.54-1.63-5.07-3.58-6.53-6.28A10.16,10.16,0,0,1,2,25.74c1-2.83,3.25-5.31,6.33-5.82,2.08-.35,5.73-.58,7.35,1l.89-.89C11.79,16.37,19,11.29,22,9.38A26.24,26.24,0,0,1,36.62,5c3.25.12,6.25,1.36,7.86,4.31a.63.63,0,0,0,1.14-.48,3.23,3.23,0,0,1,.55-3.29A8.24,8.24,0,0,1,49.41,4a84.58,84.58,0,0,1,8.38-2.32C61.07,1,64.45.84,67.11,3.16c2.25,2,2.47,4.55,1.36,7.19s-3.06,5-4.61,7.43c-.32.5.21,1,.71.91,4.62-.7,9.27-2.25,13.4.82,1.73,1.28,3.5,3.14,2.24,5.33-1.07,1.85-3,3.23-4.53,4.67a.63.63,0,0,0,.61,1c4.47-1.19,9.59-.22,11.58,4.41,1.79,4.15-.07,8.77-3.64,11.27-.54.38-.23,1.4.48,1.14,2.14-.76,4.3-.5,5.54,1.59A8,8,0,0,1,91,54.8a4.27,4.27,0,0,1-1.44,2.5,7.91,7.91,0,0,1-3.6,1.11c-2.43.35-5.12.38-7.12,2-.62.51.27,1.39.89.89,2.47-2,6.28-1.22,9.16-2.26,2.27-.83,3.28-2.85,3.53-5.15a8.63,8.63,0,0,0-1.65-6.38c-1.62-1.94-4.1-2.14-6.37-1.33l.48,1.14c4.08-2.85,6.17-8,4.18-12.78-2.21-5.25-8-6.55-13.08-5.18l.61,1c1.73-1.63,4-3.25,5-5.51s-.22-4-1.79-5.48a11.07,11.07,0,0,0-7.29-3.06c-2.78-.06-5.54.73-8.27,1.15l.7.92C67.76,14,73.43,7.66,68.39,2.65,65.78,0,62.45-.32,58.94.21A59.69,59.69,0,0,0,48.47,3a7.37,7.37,0,0,0-3.55,2.11,4.65,4.65,0,0,0-.5,4.09l1.14-.48c-3.28-6-11.07-5.49-16.72-3.81A29.81,29.81,0,0,0,21.5,8.23,22.07,22.07,0,0,0,14.9,14c-1.69,2.4-1.67,5.11.73,7,.62.48,1.47-.3.89-.89-1.93-1.94-5.82-1.78-8.3-1.41a9.55,9.55,0,0,0-7.17,6,11.63,11.63,0,0,0-.16,9.27c1.45,3.31,4.42,5.66,7.39,7.57l.31-1.16c-4,.14-5.07,4-4.72,7.35A19.11,19.11,0,0,0,9.39,59.26a8.16,8.16,0,0,0,5.76,2.51c.81,0,.81-1.28,0-1.25Z"/><rect class="cls-2" x="44.44" y="25.23" width="9.8" height="78.2" rx="1.3" transform="translate(113.67 14.99) rotate(90)"/></g></g></svg>