<svg xmlns="http://www.w3.org/2000/svg" viewBox="0 0 110.3 128.78"><defs><style>.cls-1{fill:#231f20;}</style></defs><g id="Layer_2" data-name="Layer 2"><g id="Layer_1-2" data-name="Layer 1"><path class="cls-1" d="M10.7,93.18c.16-9.52-.66-19.31,2.33-28.5L8.12,64c-.35,6.71-.56,13.43-.82,20.14-.12,3.22,4.87,3.21,5,0,.25-6,.25-12.13,1.27-18.09.95-5.58,2.69-11.29,7.19-14.93,2-1.59-.16-4.91-2.44-4.18a27.67,27.67,0,0,0-3,1.19c-2.58,1.18-.75,5.41,1.93,4.57,8.07-2.55,15.94-5.7,24-8.38A2.51,2.51,0,0,0,43,41.59a2.47,2.47,0,0,0-2.46-2.17c-9.25.71-17.63,5-26.71,6.52A2.52,2.52,0,0,0,12.09,49a2.58,2.58,0,0,0,3.08,1.75c11.43-1.64,22.4-5.35,33.57-8.17l-1.33-4.82c-8.13,2.87-16.84,3.07-25.17,5.11-2.81.69-2.09,4.81.67,4.91,11.26.45,22.35-5.39,33.57-2.91V40.06C47.25,42.83,37.65,43.54,28.07,44c-3.26.15-3.16,4.68,0,5,9.47.95,18.4-4.08,27.85-2.87v-5c-8.67.49-17.38,3.58-26.12,2.38v4.82c7-1.32,14-3.12,21.11-3.86L49.65,39.8a16.24,16.24,0,0,1-10.54,2.14v4.82c6.32-2.46,13-4.11,19.81-3.77l-1.26-4.66c-5.31,3-11.61,3.14-17.51,4.06a2.51,2.51,0,0,0-1.83,2.41,2.58,2.58,0,0,0,1.83,2.41c3.48,1.21,7.12.94,10.71,1.47V43.85c-.63.13.36,0,.06,0s-.47,0-.69.06c-.65,0-1.29.06-1.93.08-1.59.06-3.18.11-4.77.22-3.28.23-7.06.46-10,2.17-3.23,1.89-3.82,6-.63,8.23,2.8,2,6.86,2.37,10.18,2.71,5.5.57,11.07-.38,16.56.37V52.87c-9.82,2.08-19.93.24-29.82-.25-2.09-.1-3.4,2.86-1.77,4.27C31.79,60.08,36.24,61,41,61.29c4.15.25,8.42.18,12,2.57l1.26-4.66c-5.74-.52-11.49-1.13-17.27-1.15-2.9,0-3.28,4-.66,4.91,9.49,3.21,19.53,2,29.36,2.62,2.1.12,3.38-2.87,1.77-4.27-4.62-4-11.69-5-17.42-3a2.54,2.54,0,0,0-.6,4.57c7.4,4.73,16.72,2.86,24.74,1.1a2.52,2.52,0,0,0,1.11-4.18c-7.85-7.05-18.46-2.59-27.68-2.44l.67,4.91C56,61,64.41,61.27,71,56.37c1.39-1,1.82-3.37,0-4.32-3.44-1.79-7.13-1.7-10.81-.78-3.24.81-6.4,2.33-9.75,2.64l1.27,4.66c5.32-3.32,11.68-4,17.53-5.93a2.51,2.51,0,0,0-.66-4.91c-6.73-.46-13.22,2-19.94,1.81l.67,4.91C55.8,52.8,62.34,51.24,68.67,49A2.51,2.51,0,0,0,68,44.06c-6.33-.4-12.53,1.16-18.83,1.48-3.19.17-3.24,5,0,5,7.79.07,15.78-.06,23-3.4a2.47,2.47,0,0,0,1-3.12,2.53,2.53,0,0,0-3-1.45c-6.8,1.44-13.85.49-20.68,1.83L52,48.58c3-3,7.23-3.68,11.3-3.95,4.45-.3,9-.16,13.36-1.37A2.51,2.51,0,0,0,76,38.35c-10-.17-20,.76-30.07,1.25l.66,4.91c6.3-2.08,12.87-3.12,18.93-5.91a2.52,2.52,0,0,0,.89-3.42,2.56,2.56,0,0,0-3.42-.9c-6.3,2.66-13.27,3.16-20,3.15v5c5.41-.14,10.49-1.43,14.81-4.78,1.5-1.16.59-3.8-1.1-4.18C48.86,31.7,42.15,36,35,38.33l2.44,4.18c2.61-2.62,6-4.15,9.34-5.58a41.49,41.49,0,0,0,10-5.45,2.51,2.51,0,0,0-1.11-4.17c-6.38-1.08-12.39,1.05-18.22,3.43a2.55,2.55,0,0,0-1.8,2.74,2.51,2.51,0,0,0,2.46,2.17c8.09-.07,16-2,23.88-3.59l-1.33-4.82c-10,3.17-20.76,3.28-30.54,7.44a2.47,2.47,0,0,0-1,3.12,2.52,2.52,0,0,0,2.94,1.45c6.21-1.17,12.47-2.52,17.9-5.9,2.36-1.47.87-5.39-1.93-4.57A89.27,89.27,0,0,0,26.89,38a2.51,2.51,0,0,0-1,3.12,2.56,2.56,0,0,0,2.95,1.45C33,42,37.07,40.8,41.21,40l-2.43-4.18c-5.56,5.08-13.53,5.69-20.52,7.45-2.71.68-2.18,5,.67,4.91,3.13-.1,6.37-1.08,9.5-.58l-1.75-3.08a3.18,3.18,0,0,1-1.54,1.68,13.41,13.41,0,0,1-2.88,1.11c-2.42.76-4.9,1.54-6.69,3.42a2.53,2.53,0,0,0,.5,3.93c.18.09.44.28.44.26a2.35,2.35,0,0,1-.21-.31c-.06-.18-.05-.16,0,.07l-.05-.28v.2l0-.25c-.08.23-.09.27,0,.12s.06-.12,0,0a5.7,5.7,0,0,1-.3.54,3.26,3.26,0,0,1-.5.66c-1,1.14-2.19,2.12-3.3,3.19l3.54,3.53c6.53-8.25,15.12-14.57,21.42-23a2.51,2.51,0,0,0-.39-3,2.57,2.57,0,0,0-3-.39,2.14,2.14,0,0,1,2,.31c-.19-.13.44.52.1.1-.13-.16.12.52.06.11s-.17-.66-.24-1,0,.43,0-.07l-.06-.68a38.62,38.62,0,0,1,0-5.27c.33-5.34,1.73-10.53,2.22-15.85.26-2.93-4.07-3.22-4.92-.67-2.61,7.93-2.42,16.77-6.2,24.31l4.57,1.93c1.57-10,4-20.5,10-28.88L36.57,9.08c-.19,7-.48,14-2.08,20.89l4.82,1.33c.9-4.86,1.19-9.8,2-14.66.79-4.4,2-9.11,5.21-12.37L42.39,3.16c1.55,4.18,1.59,8.53,2,12.91A40,40,0,0,0,45.45,23a11.16,11.16,0,0,0,.89,2,1.55,1.55,0,0,1,.17.41l.37,1A13.23,13.23,0,0,0,48.55,30a3,3,0,0,0,4.54.52c2.67-2.38,4-6.19,4.53-9.62.67-4.41.4-8.84.35-13.28L53.7,9.43c3.19,3.51,4.8,8.08,6.27,12.5,1.59,4.75,3.08,9.64,5.77,13.9a2.52,2.52,0,0,0,4.66-1.26c.14-10-4-19.39-7.87-28.36a2.48,2.48,0,0,0-3.12-1,2.56,2.56,0,0,0-1.45,3c1.6,11.21,2.18,22.58,4.94,33.6a2.53,2.53,0,0,0,2.41,1.84,2.62,2.62,0,0,0,2.41-1.84,50.48,50.48,0,0,0,3-17.36A91.15,91.15,0,0,0,69.12,6.55c-.5-2.74-5.29-2.14-4.91.66C65.69,18.31,65.88,29.5,66,40.68l4.66-1.26c-2.19-3-3-6.67-4-10.22-1.11-4-2.36-8.33-5-11.61a10.33,10.33,0,0,0-4.2-3.38,4.52,4.52,0,0,0-5.62,1.64c-1.95,3-2.56,6.84-2.72,10.39a53.91,53.91,0,0,0,1.12,12.48c.54,2.86,4.83,2.06,4.91-.66A62.15,62.15,0,0,0,50.73,14a2.53,2.53,0,0,0-3.67-1.5c-8.52,5.5-5.44,17.58-6.3,26l4.91-.67c-2.25-8.67-.57-17.7-.68-26.52L40.08,12c2.1,10.38,4.09,21.55,11.55,29.6a2.47,2.47,0,0,0,2.43.65c9-2.91,9.33-14.18,10.88-21.91l-4.57.59c4.35,7.56,4.8,16.59,7.91,24.63a2.59,2.59,0,0,0,2.41,1.83,2.52,2.52,0,0,0,2.41-1.83C74.52,38.6,71.61,31.65,67.73,26l-3.93,3c6.89,6.13,12.54,13.5,19.42,19.64l3-3.93C80.89,41,77.37,34.54,70.48,33.22a2.54,2.54,0,0,0-2.83,3.67c1.86,4.29,5.85,7,9.89,9.06,2,1,4,1.86,6,2.83A24.14,24.14,0,0,1,88.66,52l1.77-4.27c-3.69.23-7.08-1.46-10.19-3.26-3.41-2-6.61-4.31-10.11-6.11-2.46-1.27-5.1,1.85-3,3.92,6,6,13.9,8.88,20.76,13.56l2.52-4.31c-6.45-3-11.3-8.94-18.86-9.14-2.27-.06-3.17,2.72-1.77,4.26,5.19,5.72,12.37,8.45,19,12l1.93-4.57C85.08,52.65,79,51.4,74.62,47.31l-2.43,4.18c6.9,1.76,13.17,5.24,19.79,7.77,2.3.88,4.31-2.61,2.43-4.18a23.25,23.25,0,0,0-5-3.1c-1.73-.84-4.56.6-3.68,2.82,2.61,6.56,3.21,13.69,5.66,20.29a2.51,2.51,0,0,0,4.91-.66c.56-7.28,0-14.58.29-21.86L92,53.83c2,4.18,2.51,8.86,2.82,13.41a114,114,0,0,0,1.44,14.53c.54,2.72,5.19,2.15,4.91-.67-.72-7.16-1.44-14.33-2.81-21.4L93.5,61A135,135,0,0,1,97,90.26c0,3.24,4.82,3.2,5,0a91,91,0,0,0-1.53-23.7,2.49,2.49,0,0,0-2.74-1.79,2.54,2.54,0,0,0-2.17,2.46,71.09,71.09,0,0,0,2.06,23.23l4.82-1.33C100.72,83,100,76.58,98.17,70.43,96.6,65,94,57.73,88,56c-3.7-1.07-7.49.57-10.47,2.69l3.67,2.83a5.38,5.38,0,0,1,2.89-2.89,2.53,2.53,0,0,0,1.79-2.74A2.47,2.47,0,0,0,83.4,53.7C79,54,74.92,56.11,70.52,56.41l.66,4.91a55.36,55.36,0,0,0,6.72-1.9,2.54,2.54,0,0,0,1.79-2.75,2.48,2.48,0,0,0-2.45-2.16,42.1,42.1,0,0,0-8,1.3L71.72,60a5.65,5.65,0,0,1,1.16-1.23l-3.42-3.42c-3.09,4.82-8.15,6.78-13.56,7.12-6,.38-11.89-.67-17.78-1.52A73.09,73.09,0,0,0,28.44,60l1.27,4.66a8.75,8.75,0,0,1,5.49-1.87,2.5,2.5,0,0,0,0-5c-3.54-.32-7-1.38-10.45-2.07l.59,4.57a9.63,9.63,0,0,1,4.25-1.51c2.3-.06,3.63-3.54,1.26-4.65a3.8,3.8,0,0,1-1.54-1.07c.21.24-.28-.43-.34-.53-.12-.27-.14-.3-.06-.1-.06-.16-.11-.32-.16-.48a4.82,4.82,0,0,1-.25-1.72,17.94,17.94,0,0,1,.11-2.32c.3-2.81,1.27-6.06,1.36-9.11a2.55,2.55,0,0,0-2.5-2.5C19,35.72,15.53,47.23,14.18,53.72,13.54,56.86,18,58.15,19,55.05c2-6.37,4-12.73,5.7-19.2.59-2.28-2.47-4.39-4.17-2.43A50,50,0,0,0,9.94,52.69L14.76,54c.4-1.82.62-3.66.84-5.5.3-2.45-3.64-3.45-4.65-1.27C7.46,54.71,7.12,63.14,3.78,70.62L8.1,73.15a26.21,26.21,0,0,0,2.47-9.59A2.52,2.52,0,0,0,5.91,62.3C2.26,69.08,2,77.28,2.56,84.8c.26,3.17,4.9,3.25,5,0,.13-3.9-.65-7.72-.93-11.59a2.52,2.52,0,0,0-2.17-2.46,2.49,2.49,0,0,0-2.74,1.79A91.74,91.74,0,0,0,0,84c-.15,2.38,3.66,3.54,4.66,1.26C6.83,80.29,7.83,75,9,69.78c1.13-5,2.23-10,5.07-14.18a12,12,0,0,1,4.66-4,2.22,2.22,0,0,1,.51-.22c.25-.1.51-.19.77-.27a4.13,4.13,0,0,1,1.87-.18l5.9.43c1.85.13,3.95.57,5.78.22a54,54,0,0,0,6.1-1.67c3.92-1.27,7.75-2.83,11.62-4.23s8.53-3.35,12.87-3,8.24,2.46,12.43,3.24c1.7.32,3.78-1.13,3.07-3.07A34,34,0,0,0,75.6,34.7a2.5,2.5,0,0,0-4.32,2.52c3.55,7.13,9.11,12.86,14.44,18.66,1.59,1.72,4.09.24,4.27-1.77a16.82,16.82,0,0,1,.68-3l-4.18,1.1c1.79,2.13,2.15,5.16,2.62,7.8.52,3,1.15,6.07,2.91,8.64a2.54,2.54,0,0,0,3.93.51,18.08,18.08,0,0,0,4.67-9l-4.91-.67a175.08,175.08,0,0,1,1.1,17.87c0,2.85,4.07,3.34,4.91.66a24.77,24.77,0,0,0,1-9.06l-4.66,1.26c4.1,5.32,3.9,12.56,2.07,18.73-.92,3.09,3.91,4.41,4.82,1.32,2.17-7.29,2.28-16.28-2.58-22.57a2.6,2.6,0,0,0-2.82-1.15A2.5,2.5,0,0,0,97.71,69a20.81,20.81,0,0,1-.81,7.73l4.91.67a175.08,175.08,0,0,0-1.1-17.87,2.53,2.53,0,0,0-2.17-2.45,2.5,2.5,0,0,0-2.75,1.79,13.22,13.22,0,0,1-3.38,6.81l3.93.51c-1.73-2.53-2.07-5.59-2.6-8.52A18.5,18.5,0,0,0,90,48.71c-1.24-1.48-3.72-.6-4.18,1.1a24.44,24.44,0,0,0-.86,4.3l4.27-1.77C84.19,46.84,79,41.47,75.6,34.7l-4.32,2.52a28.64,28.64,0,0,1,3.55,7l3.08-3.08C74,40.38,70.35,38.68,66.43,38,62,37.22,58,38.2,53.78,39.54s-8,2.93-12.05,4.38c-2,.71-4,1.38-6,1.95a22,22,0,0,1-3.07.79,14.35,14.35,0,0,1-2.77-.15l-6-.43a13.49,13.49,0,0,0-5.37.25,16.2,16.2,0,0,0-6.82,4.26c-3.76,4-5.51,9.46-6.8,14.67-.75,3-1.36,6.11-2.08,9.15-.35,1.5-.72,3-1.16,4.46-.21.7-.43,1.4-.67,2.09-.12.34-.25.67-.37,1l-.3.73L5,84A80.07,80.07,0,0,1,6.54,73.87l-4.91-.66c.28,3.87,1.06,7.69.93,11.59h5c-.52-6.58-.54-14,2.67-20L5.57,63.56a19.46,19.46,0,0,1-1.79,7.06A2.59,2.59,0,0,0,4.68,74a2.51,2.51,0,0,0,3.42-.89c3.35-7.5,3.7-16,7.16-23.37L10.6,48.52a42,42,0,0,1-.66,4.17c-.69,3.13,4,4.45,4.82,1.33A44.23,44.23,0,0,1,24.07,37l-4.18-2.44c-1.66,6.47-3.72,12.83-5.71,19.2L19,55.05a35.81,35.81,0,0,1,3-9.15,11.86,11.86,0,0,1,2.55-3.57s.51-.43.33-.29.22-.14.26-.17.94-.48.59-.34a2.66,2.66,0,0,1,1.75-.24L25,38.79c0,.38,0,.75-.07,1.13a6,6,0,0,1-.11.82c-.14.87-.31,1.74-.47,2.6a42.63,42.63,0,0,0-.81,5.74c-.18,3.83,1.15,7.63,4.82,9.35l1.26-4.66A14.89,14.89,0,0,0,22.82,56c-1.8,1-1.53,4.14.6,4.57,3.93.78,7.77,1.88,11.78,2.24v-5a13.28,13.28,0,0,0-8,2.55C25.26,61.72,25.79,65,28.44,65c12.14.09,25.25,5.65,37.18.18a19.35,19.35,0,0,0,8.15-7.32c1.31-2-1.35-4.88-3.42-3.42a10.16,10.16,0,0,0-2.17,2c-1.48,1.89-.18,4.8,2.43,4.18a34.67,34.67,0,0,1,6.63-1.12l-.67-4.91a53.9,53.9,0,0,1-6.71,1.89c-2.72.62-2.17,5.11.66,4.92C75,61.11,79,59,83.4,58.7l-.67-4.91a10.89,10.89,0,0,0-6.38,6.38c-.77,2,2,4,3.67,2.82a19.7,19.7,0,0,1,2.08-1.32,11,11,0,0,1,1.09-.53c-.41.17.46-.16.64-.22s.65-.17,1-.24-.36,0,.27,0H86c.69,0-.29-.12.34.06l.8.25c-.51-.18-.08,0,.17.09a7.71,7.71,0,0,1,.72.44c.11.07.37.28-.09-.09l.4.34a12.93,12.93,0,0,1,1.14,1.2c.4.47-.21-.3,0,0,.09.14.19.27.28.4s.38.57.55.86c.33.54.63,1.11.91,1.68.17.34.32.68.47,1,0,.07.19.44,0,0l.26.65c.56,1.44,1,2.91,1.46,4.4.88,3.09,1.55,6.23,2.19,9.38s1.15,6.09,2,9.08,5.58,1.8,4.82-1.33a66.53,66.53,0,0,1-1.88-21.9l-4.91.66A85.62,85.62,0,0,1,97,90.26h5A141.59,141.59,0,0,0,98.32,59.7,2.5,2.5,0,0,0,93.5,61c1.29,6.63,2,13.35,2.63,20.07l4.91-.66c-2-9.73-.4-19.91-4.76-29.13-1.13-2.38-4.57-1-4.66,1.26-.29,7.28.27,14.58-.29,21.86l4.91-.67c-2.45-6.6-3-13.73-5.65-20.29l-3.68,2.82a19,19,0,0,1,4,2.33l2.43-4.18c-6.62-2.53-12.89-6-19.79-7.77-2.35-.6-4.3,2.42-2.44,4.17,5,4.74,11.76,6.4,18.27,8.07,2.68.69,4.47-3.18,1.92-4.57C85,51,78.17,48.45,73.28,43.08l-1.76,4.27c3,.08,5.67,1.6,8.13,3.26a60,60,0,0,0,8.21,5.19,2.5,2.5,0,0,0,2.52-4.31c-6.48-4.43-14.11-7.16-19.74-12.78l-3,3.92c7.19,3.71,14.17,10.61,22.82,10.06,2-.13,3.5-2.74,1.77-4.27-3.29-2.91-7.38-4.48-11.28-6.37s-7.28-3.81-9-7.68L69.15,38c2.94.57,5.18,2.43,7.28,4.46a64.16,64.16,0,0,0,7.29,6.6c2.32,1.63,5.14-2.05,3-3.93C79.87,39,74.22,31.67,67.33,25.54a2.51,2.51,0,0,0-3.28-.2,2.49,2.49,0,0,0-.64,3.23c3,4.38,6,10.1,4.87,15.61H73.1c-3.27-8.47-3.82-17.84-8.42-25.82-1-1.77-4.14-1.56-4.57.6-.75,3.76-1.14,7.6-2.2,11.3a15.18,15.18,0,0,1-2,4.67,6.18,6.18,0,0,1-3.16,2.44l2.43.65c-6.77-7.32-8.35-18-10.26-27.4C44.34,7.83,40,8.5,40,11.29c.11,9.31-1.52,18.69.86,27.85a2.49,2.49,0,0,0,2.74,1.79,2.53,2.53,0,0,0,2.17-2.45c.42-4.13,0-8.29.22-12.43a20.12,20.12,0,0,1,1-5.67,6.93,6.93,0,0,1,2.65-3.61l-3.68-1.49A58.43,58.43,0,0,1,50.1,38.06L55,37.39A49.82,49.82,0,0,1,54,27c.08-3.18.55-6.47,2.42-9.11L55,19c.68-.29.83-.19,1.5.37a9.78,9.78,0,0,1,1.77,2,27.77,27.77,0,0,1,2.94,7C62.56,33,63.44,38,66.3,41.94,67.67,43.85,71,43.33,71,40.68c-.08-11.18-.27-22.37-1.75-33.47l-4.91.67a83.69,83.69,0,0,1,1.37,16.5,46.26,46.26,0,0,1-2.77,16h4.82C65,29.4,64.39,18,62.78,6.81L58.22,8.73c3.55,8.15,7.31,16.79,7.18,25.84l4.66-1.26C64.61,24.68,64.3,13.66,57.24,5.9A2.52,2.52,0,0,0,53,7.66c.05,4.08.41,8.27-.23,12.32A14.6,14.6,0,0,1,51,25.16a8.82,8.82,0,0,1-.63,1c-.15.19-.31.37-.47.55-.85.78-.13.77,2.15,0,.38.24.57.72.32.13-.07-.13-.13-.26-.19-.39.08.2.08.21,0,0-.55-1.34-.94-2.77-1.6-4.07a16.6,16.6,0,0,1-1.22-5.84c-.46-5-.42-10-2.18-14.7A2.53,2.53,0,0,0,43,.73C35.5,8.28,36.29,20.24,34.49,30a2.58,2.58,0,0,0,1.75,3.08,2.53,2.53,0,0,0,3.07-1.75C41,24,41.37,16.53,41.57,9.08c.07-2.67-3.31-3.14-4.66-1.26C30.66,16.52,28,27.47,26.39,37.89a2.53,2.53,0,0,0,1.44,3,2.48,2.48,0,0,0,3.12-1c4-8,3.94-17.11,6.72-25.51l-4.91-.66c-.55,5.93-2.13,11.71-2.3,17.69a21.09,21.09,0,0,0,.48,6.34c.7,2.4,2.87,3.87,5.27,2.62l-3.42-3.42c-6,8.1-14.37,14.12-20.64,22a2.58,2.58,0,0,0,0,3.53,2.55,2.55,0,0,0,3.54,0c1.63-1.57,3.45-3,4.64-5,1.58-2.61,1-5.58-1.73-7.09l.5,3.93a6.43,6.43,0,0,1,2.6-1.53c1.16-.4,2.35-.71,3.5-1.13,2.94-1.08,5.2-2.74,6.31-5.76a2.52,2.52,0,0,0-1.75-3.08c-3.68-.57-7.16.29-10.83.41l.66,4.91c8-2,16.38-2.93,22.72-8.74a2.51,2.51,0,0,0,.4-3,2.61,2.61,0,0,0-2.83-1.15c-4.14.75-8.21,1.91-12.39,2.49l1.93,4.57A84,84,0,0,1,49.37,33.6L47.45,29c-5.07,3.15-10.92,4.31-16.7,5.4L32.67,39C42,35,52.43,35.09,62,32.06c3.09-1,1.81-5.45-1.33-4.82-7.46,1.51-14.9,3.35-22.55,3.41l.66,4.91c4.82-2,10.26-4.33,15.57-3.43L53.27,28c-2.85,2.26-6.37,3.54-9.68,5A29.79,29.79,0,0,0,33.93,39c-1.71,1.71,0,5,2.43,4.18,6-1.95,12.43-6.36,19-4.87l-1.1-4.18c-3.2,2.47-7.35,3.22-11.28,3.32-3.21.08-3.23,5,0,5,7.72,0,15.38-.81,22.55-3.83L63,34.28c-5.63,2.6-11.87,3.47-17.73,5.41-2.56.84-2.28,5.05.67,4.91,10-.49,20-1.42,30.07-1.25l-.66-4.91c-4.37,1.22-9,.89-13.45,1.3-5,.46-9.77,1.72-13.42,5.31-1.88,1.84.09,4.63,2.43,4.17,6.83-1.34,13.87-.38,20.69-1.83l-1.92-4.57C63.32,45.75,56,45.6,49.18,45.54v5c6.3-.32,12.5-1.88,18.83-1.48l-.67-4.91C61,46.41,54.47,48,48,49.63c-2.78.7-2.13,4.84.66,4.91,6.72.16,13.21-2.27,19.94-1.81l-.66-4.91c-6.28,2.11-13,2.87-18.74,6.43-1.95,1.22-1.34,4.9,1.26,4.66,3.33-.31,6.4-1.48,9.59-2.41,2.74-.81,5.77-1.53,8.44-.13V52.05c-6.14,4.59-14.26,4.2-21.49,5.37-2.81.46-2.11,5,.66,4.91,4.3-.07,8.52-1.08,12.79-1.43,3.86-.32,8.3-.34,11.35,2.41l1.1-4.18c-6.67,1.46-14.69,3.36-20.88-.59l-.6,4.56c4-1.35,9.27-1.12,12.55,1.74l1.77-4.26c-9.38-.56-19,.62-28-2.44L37,63.05c5.78,0,11.53.63,17.27,1.15,2.66.24,3.15-3.4,1.27-4.66-3.8-2.52-8.3-2.93-12.73-3.16-3.89-.2-8.09-.35-11.19-3l-1.77,4.27c10.4.52,20.81,2.26,31.15.07,2.29-.48,2.47-4.48,0-4.82-5.23-.71-10.43-.06-15.67-.37a28.89,28.89,0,0,1-8.15-1.34c-.09,0-1-.37-.49-.17-.33-.14-.62-.32-.93-.48-.12-.07-.35-.29.05.06-.06,0-.22-.16-.25-.23-.13-.32.24.53.11.2.17.45.08.46.06.15s-.09.55,0,.24.24-.41-.07.14c0,0,.15-.22.15-.24,0,.39-.36.23.12,0-.66.38.26-.13.41-.21l.33-.17c.35-.17-.57.2,0,0l.8-.26a19.16,19.16,0,0,1,2.15-.49,38.16,38.16,0,0,1,4.28-.45c2.72-.18,5.59,0,8.27-.51,2.32-.47,2.45-4.47,0-4.83-3.56-.52-7.27-.26-10.71-1.46v4.82c6.41-1,12.93-1.28,18.7-4.56,2.24-1.28,1.14-4.55-1.26-4.66-7.23-.36-14.44,1.34-21.14,3.95A2.6,2.6,0,0,0,36,44.35a2.48,2.48,0,0,0,1.83,2.41,21.78,21.78,0,0,0,14.4-2.64c2-1.2,1.33-4.93-1.27-4.66-7.58.79-15,2.64-22.44,4-2.33.43-2.44,4.48,0,4.82,9.32,1.28,18.21-1.68,27.45-2.2a2.5,2.5,0,0,0,0-5c-9.47-1.21-18.4,3.82-27.85,2.87v5c10-.47,20.1-1.21,29.74-4.11,2.26-.68,2.5-4.27,0-4.82-5.94-1.32-11.89-.63-17.8.49-5.66,1.08-11.29,2.47-17.1,2.24l.66,4.92c8.33-2.05,17-2.25,25.17-5.12,3-1.06,1.83-5.62-1.33-4.82-11.16,2.82-22.14,6.53-33.57,8.17l1.33,4.82c8.61-1.45,16.62-5.67,25.38-6.34l-.66-4.91c-8,2.68-15.91,5.83-24,8.38l1.92,4.57a17.42,17.42,0,0,1,1.82-.69l-2.43-4.18c-5,4.08-7.32,10.61-8.42,16.8C7.65,70.92,7.57,77.54,7.3,84.15h5c.26-6.71.47-13.43.82-20.14.15-2.91-4.07-3.25-4.91-.66C5.07,73,5.87,83.22,5.7,93.18c0,3.22,5,3.22,5,0Z"/><path class="cls-1" d="M10,93.66C9.52,86,8.64,78,10.77,70.5H6c2.27,7.47.38,15.41-.2,23A2.52,2.52,0,0,0,8.25,96a2.55,2.55,0,0,0,2.5-2.5c.62-8.09,2.44-16.35,0-24.32a2.52,2.52,0,0,0-4.82,0C3.69,77.16,4.49,85.5,5,93.66a2.56,2.56,0,0,0,2.5,2.5,2.51,2.51,0,0,0,2.5-2.5Z"/><path class="cls-1" d="M13.17,93.18,14,72.58H9C8.87,79.29,7.5,85.85,6.44,92.45a2.56,2.56,0,0,0,1.74,3.07,2.52,2.52,0,0,0,3.08-1.74c1.13-7,2.6-14,2.72-21.2,0-3.22-4.88-3.2-5,0l-.81,20.6a2.5,2.5,0,0,0,5,0Z"/><path class="cls-1" d="M36.35,45.33C29.44,44,27.1,53.21,24.1,57.53l4.32,2.52a32.94,32.94,0,0,1,5-6.85l-3.93-3c-2.49,4.6-7.08,7.55-9.91,11.94L24,64.63c3.29-5.16,6.28-10.57,10.31-15.21,2.09-2.4-1.21-5.8-3.54-3.53-4.56,4.45-8.95,9.12-12.27,14.6L22.77,63C25,59.26,28,56,30.34,52.3a2.5,2.5,0,0,0-3.92-3c-4.79,6.18-11.25,11-13.48,18.87-.77,2.71,3.17,4.42,4.57,1.93,2.18-3.89,4.86-7.64,4.76-12.3a2.52,2.52,0,0,0-3.76-2.16c-3.86,2.27-5.46,7.07-6.22,11.23a48.27,48.27,0,0,0-.2,15.5A24.48,24.48,0,0,0,14,89.13a2.49,2.49,0,0,0,3.12,1,2.54,2.54,0,0,0,1.45-3c-1.25-6.81-.29-13.83-2.15-20.57a2.52,2.52,0,0,0-4.56-.6C7.25,74.37,7.76,84.57,7.73,93.76c0,3.22,5,3.23,5,0,0-4.41,0-8.83.33-13.24.35-4.08,1.08-8.32,3.07-12L11.56,68c1.84,6.69.9,13.77,2.15,20.57l4.57-1.93c-.16-.36.12.39-.12-.28l-.27-.78c-.16-.5-.29-1-.42-1.53a33.55,33.55,0,0,1-.61-3.42,47.78,47.78,0,0,1-.2-8.54,28.83,28.83,0,0,1,1.43-7.73,8.29,8.29,0,0,1,.59-1.48c.24-.49.52-.94.8-1.4l.25-.36c-.16.19-.18.22-.07.08l.49-.54a5.88,5.88,0,0,1,.59-.53c-.49.38.19-.1.3-.16l-3.77-2.16c.08,3.67-2.37,6.72-4.08,9.77l4.57,1.93c2-6.87,8-11.24,12.19-16.67l-3.92-3c-2.4,3.66-5.31,7-7.58,10.71-1.67,2.75,2.66,5.27,4.32,2.52,3.1-5.12,7.22-9.43,11.49-13.59l-3.54-3.53c-4.32,5-7.57,10.69-11.09,16.22-1.74,2.72,2.58,5.21,4.32,2.52,2.83-4.38,7.39-7.29,9.91-11.94,1.34-2.46-1.87-5.07-3.93-3a38.14,38.14,0,0,0-5.83,7.87c-1.64,2.81,2.51,5.13,4.32,2.52,1.38-2,2.3-4.28,3.53-6.36A12.62,12.62,0,0,1,34,50.86a5.89,5.89,0,0,1,.53-.48c-.39.29.34-.17.43-.22-.39.19,0,0,.17,0-.81.09.65.16-.11,0a2.57,2.57,0,0,0,3.07-1.75,2.53,2.53,0,0,0-1.74-3.08Z"/><path class="cls-1" d="M66.66,55.47c3,.23,6,1,8.91.15a2.5,2.5,0,0,0-.67-4.91l-.29,0,.66.09a6.49,6.49,0,0,1-1.48-.4l.6.25a3.23,3.23,0,0,1-.49-.25,2.5,2.5,0,0,0-2.52,4.32,7.67,7.67,0,0,0,3.52,1l-.66-4.91a7.26,7.26,0,0,1-1,.22l.66-.09c-2.41.31-4.81-.28-7.21-.46a2.52,2.52,0,0,0-2.5,2.5,2.57,2.57,0,0,0,2.5,2.5Z"/><path class="cls-1" d="M39.3,55.4c3,.22,6,1,8.91.15a2.5,2.5,0,0,0-.67-4.91l-.29,0,.66.09a7.05,7.05,0,0,1-1.48-.4l.6.25a3.23,3.23,0,0,1-.49-.25,2.53,2.53,0,0,0-3.42.9,2.56,2.56,0,0,0,.9,3.42,7.8,7.8,0,0,0,3.52,1l-.66-4.91a9,9,0,0,1-1,.21l.66-.09c-2.41.31-4.81-.27-7.21-.45a2.52,2.52,0,0,0-2.5,2.5,2.57,2.57,0,0,0,2.5,2.5Z"/><path class="cls-1" d="M53.06,44.93c-2.25,2.78-3.32,6.27-4.64,9.54a2.51,2.51,0,0,0,3.68,2.82,2.83,2.83,0,0,0,1.14-1.49c.55-1.35,1-2.72,1.61-4.06l-.25.6c.34-.8.7-1.59,1.1-2.36.18-.34.36-.67.57-1,.09-.16.2-.32.31-.48l.15-.22c.24-.33-.4.5-.13.17a2.68,2.68,0,0,0,.73-1.76,2.5,2.5,0,0,0-4.27-1.77Z"/><path class="cls-1" d="M75.33,64.48c3.85.43,7.72.72,11.58,1a2.51,2.51,0,0,0,2.5-2.5,2.55,2.55,0,0,0-2.5-2.5c-3.86-.27-7.73-.56-11.58-1a2.5,2.5,0,0,0-2.5,2.5,2.57,2.57,0,0,0,2.5,2.5Z"/><path class="cls-1" d="M55.44,16.81c-.54,4.37-.94,8.76-1.33,13.14a2.5,2.5,0,0,0,2.5,2.5,2.57,2.57,0,0,0,2.5-2.5c.39-4.38.79-8.77,1.33-13.14a2.51,2.51,0,0,0-2.5-2.5,2.58,2.58,0,0,0-2.5,2.5Z"/><path class="cls-1" d="M36.75,52.22C43,52.56,49,53,55.24,52.16c2.95-.4,5.91-.78,8.88-1,3.18-.27,6.33-.2,9.52-.19s3.22-5,0-5-6.18-.08-9.28.17-6.34.67-9.5,1.1c-6.06.82-12,.35-18.11,0-3.22-.18-3.21,4.82,0,5Z"/><path class="cls-1" d="M80.55,71c2.34,3.45,5.51,6.07,8.59,8.84,1.23,1.11,2.45,2.21,3.76,3.24a19,19,0,0,1,3.41,3.1c1,1.36.91,3.09.82,4.81-.1,2.25-.44,4.48-.55,6.72a47.51,47.51,0,0,0,1.55,13.79,2.52,2.52,0,0,0,3.08,1.75c4.87-1.65,5.49-7.39,5.31-11.83a44.38,44.38,0,0,0-.78-6.69,17.51,17.51,0,0,1-.58-5,11.43,11.43,0,0,0-.2-5.14c-.77-2.12-4.29-2.63-4.82,0-1.27,6.32.86,12.47,1,18.77h5c-.7-5.4-1.53-10.78-2.1-16.2-.49-4.67-.11-9.55-1.25-14.13L98,74.35c1.79,6.83,5.3,13,7.38,19.75l4.57-1.93c-4.46-7.74-6.64-16.72-12.39-23.71A5.71,5.71,0,0,0,93.64,66a4.33,4.33,0,0,0-4,2.65c-1.91,3.74-2.26,9,.06,12.66a2.51,2.51,0,0,0,3.12,1,2.48,2.48,0,0,0,1.45-3,75.37,75.37,0,0,0-6.88-13.1c-2.77-4.11-6.06-8.06-10.32-10.69C75,54.34,72.26,56.93,73.64,59c4.25,6.53,8.64,13.3,14.7,18.31,2.12,1.76,5.36-.41,3.93-3-2.57-4.7-7.21-7.65-10.56-11.71l-2.43,4.18a26.47,26.47,0,0,1,8.55,4.42,2.5,2.5,0,0,0,3.54-3.53,37.46,37.46,0,0,1-3.83-5.35l-3.42,3.42c2.44,1.69,3.93,4.78,5,7.51,1.28,3.2,2.25,6.52,3.61,9.69a2.54,2.54,0,0,0,2.83,1.15,2.62,2.62,0,0,0,1.83-2.42A27.07,27.07,0,0,0,97,76.22L92.75,78c2.59,2.53,4.18,6.8,4.7,10.37L102,86.43c-1-1.41-1.12-3.19-2.1-4.6a2.54,2.54,0,0,0-4.57.6c-1.39,5-.68,11.06,1.12,15.88a2.51,2.51,0,0,0,4.91-.67,23.5,23.5,0,0,0-1.48-9.09,2.53,2.53,0,0,0-2.75-1.79A2.48,2.48,0,0,0,95,89.21a117.89,117.89,0,0,0,2.36,16.3,2.5,2.5,0,0,0,2.75,1.79,2.55,2.55,0,0,0,2.17-2.46,10.72,10.72,0,0,0-1.44-7,2.53,2.53,0,0,0-4.57.59c-1.36,4.73-1,9.75-.67,14.59.16,2.7,4.19,3.52,4.91.66,1.08-4.32.89-8.85,2-13.16l-4.91-.67c-.06,5-.14,9.92-.45,14.86-.25,4.06-.89,8.32.28,12.3.78,2.66,5,2.21,4.91-.67-.08-3.89-.57-7.74-.58-11.64,0-3,.2-6.88-1.6-9.43a2.53,2.53,0,0,0-4.31,0A16.37,16.37,0,0,0,93.92,114a22.59,22.59,0,0,0,.42,4.42c.23,1.14.75,2.59.18,3.69l4.57.6a63.06,63.06,0,0,1-.66-8.47,2.52,2.52,0,0,0-2.17-2.45,2.45,2.45,0,0,0-2.74,1.79,42.53,42.53,0,0,0-.63,5.85c0,1.93,0,4.3,1.2,5.93a2.54,2.54,0,0,0,4.32,0,3.27,3.27,0,0,0,.43-1c0-.09.15-1.15.06-.57a2.59,2.59,0,0,0-1.74-3.08,2.53,2.53,0,0,0-3.08,1.75c0,.2,0,.39-.08.59q-.12.81.09-.27h4.32c-.11-.15-.36-.74-.23-.36a6.21,6.21,0,0,1-.23-.94,17.15,17.15,0,0,1,0-2.42c0-.82.1-1.65.19-2.47,0-.19,0-.38.07-.57.11-.86,0,.22,0-.23l.15-.93-4.91-.67a73.07,73.07,0,0,0,.84,9.8,2.53,2.53,0,0,0,4.57.6,7.91,7.91,0,0,0,.83-4.7c-.17-1.5-.64-3-.71-4.47-.13-2.52-.16-5.39,1.19-7.62H95.84c.06.09.45.82.25.36a6.27,6.27,0,0,1,.26.84,10.42,10.42,0,0,1,.28,1.82c.12,1.5.12,3,.12,4.52,0,3.68.51,7.33.58,11l4.91-.66c-1.07-3.62-.28-7.64-.07-11.33.27-4.83.37-9.66.42-14.5,0-2.8-4.2-3.41-4.91-.66-1.12,4.32-.93,8.84-2,13.16l4.91.67c-.27-4.38-.74-9,.49-13.26l-4.57.6a6.72,6.72,0,0,1,.76,4.47l4.91-.66a104.89,104.89,0,0,1-2.19-15l-4.91.67a19.61,19.61,0,0,1,1.31,7.76l4.91-.66c-1.5-4-2.28-9-1.12-13.22l-4.57.59c1,1.4,1.15,3.18,2.1,4.6,1.66,2.46,5,.84,4.57-1.92a25.25,25.25,0,0,0-2.16-6.72,18.92,18.92,0,0,0-3.83-5.86C94.85,73.05,91.8,74,92,76.22a27.07,27.07,0,0,1,.38,5.46l4.66-1.26C94.31,74,93,65.82,86.64,61.43,84.52,60,82,62.8,83.22,64.86a45.48,45.48,0,0,0,4.61,6.35l3.54-3.53A32.81,32.81,0,0,0,80.61,62c-2.58-.74-3.93,2.36-2.43,4.18,3.06,3.71,7.43,6.42,9.77,10.7l3.93-3C86.12,69.06,82,62.71,78,56.52l-3.42,3.42c3.63,2.23,6.41,5.71,8.74,9.22a69.2,69.2,0,0,1,6.17,11.58L94,78.81c-1.62-2.52-.82-5.58.23-8.13-.06.15.21,0-.14.13a4.1,4.1,0,0,1-1,.16c-.31-.14-.34-.15-.09,0l.09.06c-.19-.15.37.39.44.46a22.49,22.49,0,0,1,2.07,2.88c4.13,6.37,6.19,13.78,10,20.34,1.39,2.42,5.42.82,4.57-1.93C108.11,86,104.6,79.85,102.81,73c-.81-3.11-5.6-1.8-4.82,1.33a29.88,29.88,0,0,1,.63,6.26c.08,2.36.24,4.69.49,7,.57,5.25,1.37,10.48,2,15.71a2.57,2.57,0,0,0,2.5,2.5,2.53,2.53,0,0,0,2.5-2.5c-.15-5.74-2.35-11.71-1.2-17.44h-4.82a8.59,8.59,0,0,1,0,3.81,16.75,16.75,0,0,0,.44,4.78,44.65,44.65,0,0,1,.86,5.87,23.69,23.69,0,0,1-.11,5.18,11.36,11.36,0,0,1-.31,1.28,3,3,0,0,1-.38.87c0,.07-.34.51-.06.15a3.69,3.69,0,0,1-.38.41c-.19.19.28-.15-.11.08s.32-.07-.23.12L103,110.2a42.16,42.16,0,0,1-1.31-13.42c.3-4.09,1.57-9.13-.83-12.83C99,81.08,95.89,79.31,93.43,77c-2.93-2.73-6.3-5.18-8.56-8.53-1.8-2.65-6.13-.15-4.32,2.53Z"/></g></g></svg>