<svg xmlns="http://www.w3.org/2000/svg" viewBox="0 0 115.81 167.55"><defs><style>.cls-1{fill:#231f20;}</style></defs><g id="Layer_2" data-name="Layer 2"><g id="Layer_1-2" data-name="Layer 1"><path class="cls-1" d="M5,46.94c0-5-.22-10.18.59-15.18a26,26,0,0,1,2-7.08,22.32,22.32,0,0,1,4.49-6C19.63,11.2,30.24,7.64,40.45,6a73.61,73.61,0,0,1,16.44-.83A42.36,42.36,0,0,1,72.11,8.51c8.83,4.12,14.12,13.07,16.49,22.22C91.74,42.92,87.59,56,91.92,68A2.54,2.54,0,0,0,95,69.75c7-2.47,13.85,2.08,15.55,9.06a9.59,9.59,0,0,1,.34,2.09c0,.22,0,.89,0,.89,0-.17-.27.89-.12.54a6.8,6.8,0,0,1-3.38,3.09c-1.79.84-3.81.65-5.73.72a12.66,12.66,0,0,0-6,1.43c-5.43,3.2-5.15,11.42-5.05,16.85a77.2,77.2,0,0,1,0,8c-.44,5-.86,10.09-1,15.16-.42,11.5.37,23.1-1.4,34.52l1.75-1.74c-11.86,3.65-24.5,1.6-36.67,1.79-2.31,0-4.65.56-7,.32a2.2,2.2,0,0,1-.94-.29,3.34,3.34,0,0,1-.55-.33c.24.18-.33-.41,0,0a9.9,9.9,0,0,1-.92-2.57c-1.86-5.54-6.72-7.83-11.85-9.71-4.8-1.76-9.33-3.89-12.89-7.68a24.78,24.78,0,0,1-5.86-11.6C12,125,12,119.43,11.71,113.94c-.3-7.13-.64-14.26-.57-21.4,0-3.89.44-7.81.18-11.71a65.89,65.89,0,0,0-1.78-10.9c-1.67-7.05-4-14-3.95-21.34,0-3.21-5-3.22-5,0C.58,55.4,2.39,62,4.05,68.52a82.59,82.59,0,0,1,2,9.72,63.38,63.38,0,0,1,.14,10.4C6,96.1,6.27,103.56,6.59,111c.26,6.15.27,12.36,1.36,18.43a31.89,31.89,0,0,0,5.41,13.35,30.79,30.79,0,0,0,12.69,9.84c2.49,1.06,5.12,1.82,7.59,3,2.12,1,4.17,2.21,5.14,4.43s1.13,4.46,3.26,6,4.92,1.61,7.58,1.41c13.85-1.06,28.08,2,41.64-2.22A2.48,2.48,0,0,0,93,163.48c1.67-10.79,1.25-21.63,1.48-32.5q.18-8,.91-15.9a85.9,85.9,0,0,0,.26-9.63c0-1.64-.06-3.28,0-4.92a26.88,26.88,0,0,1,.41-4.33,8.39,8.39,0,0,1,1.29-3.51c.26-.4.07-.1,0,0,.09-.11.19-.22.29-.32s.72-.57.3-.29a5.77,5.77,0,0,1,2.45-.84c2.12-.29,4.25,0,6.36-.41A12.7,12.7,0,0,0,113,87.55c3.06-2.76,3.3-6.46,2.35-10.26C113,67.9,103.07,61.61,93.66,64.92l3.08,1.75c-2-5.46-1.94-11.33-1.88-17.06.07-6,.29-12.17-1-18.13-2.16-10.28-7.76-20.6-17-26.08C72,2.47,66.21,1.15,60.57.47A72.8,72.8,0,0,0,42.93.61C31.57,2,20,5.47,11.08,12.87A27.81,27.81,0,0,0,1.17,28.38C-.19,34.47,0,40.74,0,46.94c0,3.21,5,3.22,5,0Z"/><path class="cls-1" d="M33.13,155.25a92.63,92.63,0,0,0,28.45,0,2.52,2.52,0,0,0,1.74-3.08,2.56,2.56,0,0,0-3.07-1.74,84.48,84.48,0,0,1-25.79,0,2.57,2.57,0,0,0-3.07,1.74,2.52,2.52,0,0,0,1.74,3.08Z"/></g></g></svg>