<?xml version="1.0" encoding="UTF-8"?>
<svg id="Layer_2" data-name="Layer 2" xmlns="http://www.w3.org/2000/svg" viewBox="0 0 588.1 68.14">
  <g id="Layer_1-2" data-name="Layer 1">
    <g>
      <path d="m38.12,26.73H13.53v13.87c0,5.16,1.27,6.97,4.22,7.04,2.14.07,2.34.2,2.34.74,0,.6-.4.74-1.27.74-2.21,0-5.76-.2-8.78-.2s-6.57.2-8.78.2c-.87,0-1.27-.13-1.27-.74,0-.54.2-.67,2.35-.74,2.95-.07,4.22-1.88,4.22-7.04V12.33c0-5.16-1.27-6.97-4.22-7.04-2.14-.07-2.35-.2-2.35-.74,0-.6.4-.74,1.27-.74,2.21,0,5.76.2,8.78.2s6.57-.2,8.78-.2c.87,0,1.27.13,1.27.74,0,.54-.2.67-2.34.74-2.95.07-4.22,1.88-4.22,7.04v12.26h24.59v-12.26c0-5.16-1.27-6.97-4.22-7.04-2.14-.07-2.35-.2-2.35-.74,0-.6.4-.74,1.27-.74,2.21,0,5.76.2,8.78.2s6.57-.2,8.78-.2c.87,0,1.27.13,1.27.74,0,.54-.2.67-2.34.74-2.95.07-4.22,1.88-4.22,7.04v28.27c0,5.16,1.27,6.97,4.22,7.04,2.14.07,2.34.2,2.34.74,0,.6-.4.74-1.27.74-2.21,0-5.76-.2-8.78-.2s-6.57.2-8.78.2c-.87,0-1.27-.13-1.27-.74,0-.54.2-.67,2.35-.74,2.95-.07,4.22-1.88,4.22-7.04v-13.87Z"/>
      <path d="m79.72,2.81c14.54,0,24.92,9.78,24.92,23.65s-10.38,23.65-24.92,23.65-24.92-9.78-24.92-23.65S65.18,2.81,79.72,2.81Zm0,45.83c11.39,0,16.62-11.39,16.62-22.18s-5.23-22.18-16.62-22.18-16.62,11.39-16.62,22.18,5.23,22.18,16.62,22.18Z"/>
      <path d="m149.62,32.5c0,10.39-4.15,17.62-18.56,17.62-10.39,0-17.35-4.49-17.35-14.54V12.4c0-5.23-1.27-7.04-4.29-7.1-2.14-.07-2.34-.2-2.34-.74,0-.6.4-.74,1.27-.74,2.21,0,5.76.2,8.78.2s6.57-.2,8.78-.2c.87,0,1.27.13,1.27.74,0,.54-.2.67-2.34.74-2.95.07-4.42,1.88-4.42,7.1v22.78c0,9.85,6.23,12.46,13.13,12.46,13.33,0,14.27-9.65,14.27-17.35V12.53c0-3.22,0-6.97-4.15-7.1-2.01-.07-2.75-.2-2.75-.8s.4-.8,1.14-.8c1.67,0,3.48.2,6.77.2s4.82-.2,6.5-.2c.6,0,1,.2,1,.8s-.33.74-2.34.8c-4.09.13-4.36,3.89-4.36,7.1v19.97Z"/>
      <path d="m159.04,36.45c0-.8.33-1.14.94-1.14.67,0,.87.47,1,1.27.47,2.88,3.55,11.86,12.73,11.86,6.9,0,10.25-4.35,10.25-8.98,0-13.27-23.65-8.58-23.65-24.59,0-8.58,7.5-12.06,13.67-12.06,6.97,0,7.91,3.01,10.32,3.01,1.07,0,.87-2.48,1.68-2.48.54,0,.8.27.8,1.14,0,1.47.2,8.31.2,9.65,0,.94-.27,1.34-.74,1.34s-.94-1-1.34-2.41c-1.61-5.56-6.16-8.58-10.72-8.58s-8.38,3.08-8.38,7.24c0,11.93,24.59,8.24,24.59,24.99,0,8.84-7.5,13.4-16.68,13.4-7.3,0-10.18-3.95-11.86-3.95-1.07,0-.87,2.21-1.94,2.21-.6,0-.87-.6-.87-1.27v-10.65Z"/>
      <path d="m200.08,12.33c0-5.16-1.27-6.97-4.22-7.04-2.14-.07-2.34-.2-2.34-.74,0-.6.4-.74,1.27-.74,5.29,0,10.65.2,15.95.2s10.65-.2,15.75-.2c.54,0,1.07.13,1.07.8v7.57c0,1-.27,1.27-.74,1.27s-.87-.27-.94-.94c-.54-5.56-2.81-7.04-10.59-7.04s-8.24.07-8.24,1.14v18.16c4.69,0,10.45-1.21,10.85-6.77.13-1.88.33-2.21,1-2.21.6,0,.87.27.87.8,0,2.81-.2,5.56-.2,8.38s.2,5.56.2,8.38c0,.54-.27.8-.74.8s-.74-.27-1.14-2.28c-.87-4.29-4.22-5.43-8.58-5.43h-2.28v12.33c0,5.96.94,8.64,10.12,8.64,8.64,0,11.52-3.02,12.33-7.3.27-1.41.54-1.81,1.14-1.81.33,0,.6.27.6.8,0,1.34-.4,4.96-.4,6.83v2.28c0,.6-.33.87-1.07.87-5.83,0-11.66-.2-17.49-.2s-11.66.2-17.49.2c-.87,0-1.27-.13-1.27-.74,0-.54.2-.67,2.34-.74,2.95-.07,4.22-1.88,4.22-7.04V12.33Z"/>
      <path d="m279.61,28.27c0,9.65-6.63,21.57-16.55,21.57-4.96,0-7.97-3.89-7.97-9.04,0-10.18,7.17-22.24,16.95-22.24,4.49,0,7.57,4.02,7.57,9.72Zm-19.36,16.48c0,2.75,1.07,4.15,2.81,4.15,5.29,0,11.59-16.42,11.59-25.13,0-2.75-.8-4.15-2.48-4.15-5.43,0-11.93,16.42-11.93,25.13Z"/>
      <path d="m291.34,19.43l.4-1.54c4.09-14.94,10.85-17.89,16.62-17.89,5.16,0,7.84,2.41,7.84,4.89,0,1.61-1.27,2.81-2.75,2.81-4.76,0-1.07-6.7-5.9-6.7-3.75,0-6.97,3.42-10.52,16.55l-.47,1.74c2.75-.07,5.23-.13,6.57-.13.6,0,.67,1.34,0,1.34h-6.83l-8.11,29.68c-4.02,14.87-9.85,17.96-15.54,17.96-4.82,0-6.57-2.28-6.57-4.69,0-1.61,1.07-3.15,2.88-3.15,1.94,0,2.75,1.54,2.21,3.22-.6,1.74-.2,3.69,2.35,3.69,3.62,0,5.83-3.42,9.38-16.68l8.17-30.02h-6.23c-.47,0-.4-.87,0-.87,1.21-.07,3.68-.13,6.5-.2Z"/>
      <path d="m341.3,12.33c0-5.16-1.27-6.97-4.22-7.04-2.14-.07-2.34-.2-2.34-.74,0-.6.4-.74,1.27-.74,2.21,0,5.76.2,8.78.2s6.57-.2,8.78-.2c.87,0,1.27.13,1.27.74,0,.54-.2.67-2.35.74-2.95.07-4.22,1.88-4.22,7.04v17.22c7.37-7.91,12.73-14.41,13.87-15.95,1.67-2.35,2.95-4.42,2.95-5.76,0-1.47-.8-2.48-2.68-2.55-2.21-.07-2.48-.27-2.48-.87s.54-.6.94-.6c2.41,0,4.76.2,7.17.2,2.08,0,4.15-.2,6.23-.2.54,0,.8.33.8.74,0,.6-.47.74-1.94.87-2.34.2-3.89,2.01-5.29,3.95l-10.72,13.6c6.16,7.17,11.79,15.08,18.49,21.64,1.34,1.34,2.95,3.02,4.29,3.02,1.47.07,1.67.2,1.67.74,0,.6-.4.74-1.27.74-2.95,0-5.83-.2-9.38-.2-2.95,0-5.83.2-8.78.2-.87,0-1.27-.13-1.27-.74,0-.54.2-.67,2.34-.74,1.34-.07,3.08-.4,3.08-2.01,0-1.47-1.88-3.55-2.55-4.35l-11.12-13.53-4.36,4.35v8.51c0,5.16,1.27,6.97,4.22,7.04,2.14.07,2.35.2,2.35.74,0,.6-.4.74-1.27.74-2.21,0-5.76-.2-8.78-.2s-6.57.2-8.78.2c-.87,0-1.27-.13-1.27-.74,0-.54.2-.67,2.34-.74,2.95-.07,4.22-1.88,4.22-7.04V12.33Z"/>
      <path d="m408.56,2.81h2.41l14.81,38.19c1.61,4.09,3.02,6.5,5.9,6.63,1.94.13,2.14.27,2.14.6,0,.8-.2.87-1.47.87-2.75,0-5.43-.2-8.17-.2s-5.43.2-8.17.2c-1.34,0-1.74-.07-1.74-.87,0-.33.4-.6,2.28-.6,2.21,0,3.08-1.27,3.08-2.68s-1.07-4.69-2.08-7.37l-1.94-5.09h-17.02l-3.75,10.18c-.2.6-.33,1.27-.33,2.01,0,2.14,1.74,2.68,3.82,2.95,1.54.2,1.74.27,1.74.6,0,.8-.2.87-1.34.87-2.08,0-4.22-.2-6.3-.2s-4.22.2-6.3.2c-.94,0-1.21-.2-1.21-.87,0-.27.13-.47,1.41-.6,2.95-.33,5.03-1.61,8.24-9.65l14-35.18Zm-1.21,8.24c-.07-.07-.07,0-.13,0l-7.91,19.56h15.54l-7.5-19.56Z"/>
      <path d="m450.5,6.97c0-1-.4-1.27-10.32-1.27-4.69,0-8.31.8-8.64,5.83-.13,2.14-.47,2.35-1,2.35-.4,0-.54-.27-.54-.87V4.82c0-.6.2-1,1.14-1h45.7c.94,0,1.14.4,1.14,1v8.17c0,.6-.13.87-.54.87-.54,0-.87-.2-1-2.35-.33-5.02-3.95-5.83-8.64-5.83-9.92,0-10.32.27-10.32,1.27v33.63c0,5.16,1.27,6.97,4.22,7.04,2.14.07,2.34.2,2.34.74,0,.6-.4.74-1.27.74-2.21,0-5.76-.2-8.78-.2s-6.57.2-8.78.2c-.87,0-1.27-.13-1.27-.74,0-.54.2-.67,2.34-.74,2.95-.07,4.22-1.88,4.22-7.04V6.97Z"/>
      <path d="m520.98,26.73h-24.59v13.87c0,5.16,1.27,6.97,4.22,7.04,2.14.07,2.35.2,2.35.74,0,.6-.4.74-1.27.74-2.21,0-5.76-.2-8.78-.2s-6.57.2-8.78.2c-.87,0-1.27-.13-1.27-.74,0-.54.2-.67,2.34-.74,2.95-.07,4.22-1.88,4.22-7.04V12.33c0-5.16-1.27-6.97-4.22-7.04-2.14-.07-2.34-.2-2.34-.74,0-.6.4-.74,1.27-.74,2.21,0,5.76.2,8.78.2s6.57-.2,8.78-.2c.87,0,1.27.13,1.27.74,0,.54-.2.67-2.35.74-2.95.07-4.22,1.88-4.22,7.04v12.26h24.59v-12.26c0-5.16-1.27-6.97-4.22-7.04-2.14-.07-2.34-.2-2.34-.74,0-.6.4-.74,1.27-.74,2.21,0,5.76.2,8.78.2s6.57-.2,8.78-.2c.87,0,1.27.13,1.27.74,0,.54-.2.67-2.35.74-2.95.07-4.22,1.88-4.22,7.04v28.27c0,5.16,1.27,6.97,4.22,7.04,2.14.07,2.35.2,2.35.74,0,.6-.4.74-1.27.74-2.21,0-5.76-.2-8.78-.2s-6.57.2-8.78.2c-.87,0-1.27-.13-1.27-.74,0-.54.2-.67,2.34-.74,2.95-.07,4.22-1.88,4.22-7.04v-13.87Z"/>
      <path d="m562.84,2.81h2.41l14.81,38.19c1.61,4.09,3.02,6.5,5.9,6.63,1.94.13,2.14.27,2.14.6,0,.8-.2.87-1.47.87-2.75,0-5.43-.2-8.17-.2s-5.43.2-8.17.2c-1.34,0-1.74-.07-1.74-.87,0-.33.4-.6,2.28-.6,2.21,0,3.08-1.27,3.08-2.68s-1.07-4.69-2.08-7.37l-1.94-5.09h-17.02l-3.75,10.18c-.2.6-.33,1.27-.33,2.01,0,2.14,1.74,2.68,3.82,2.95,1.54.2,1.74.27,1.74.6,0,.8-.2.87-1.34.87-2.08,0-4.22-.2-6.3-.2s-4.22.2-6.3.2c-.94,0-1.21-.2-1.21-.87,0-.27.13-.47,1.41-.6,2.95-.33,5.03-1.61,8.24-9.65l14-35.18Zm-1.21,8.24c-.07-.07-.07,0-.13,0l-7.91,19.56h15.54l-7.5-19.56Z"/>
    </g>
  </g>
</svg>