<svg xmlns="http://www.w3.org/2000/svg" viewBox="0 0 49.9 28.37"><defs><style>.cls-1{fill:#231f20;}.cls-2{fill:#be1e2d;}</style></defs><g id="Layer_2" data-name="Layer 2"><g id="Layer_1-2" data-name="Layer 1"><path class="cls-1" d="M.73,4.24a39.23,39.23,0,0,0,21.86,8.3,48,48,0,0,0,18.92-2.8,38.81,38.81,0,0,0,7.2-3.32,2.52,2.52,0,0,0-1.26-4.66h-.54c-3.22,0-3.23,5,0,5h.54L46.19,2.1c-.77.47-1.56.9-2.37,1.3a26.59,26.59,0,0,1-2.66,1.16,48.74,48.74,0,0,1-7.67,2.22,38.76,38.76,0,0,1-18.41-.56A32.54,32.54,0,0,1,4.26.7,2.57,2.57,0,0,0,.73.7a2.52,2.52,0,0,0,0,3.54Z"/><path class="cls-2" d="M33.19,10.78a17.15,17.15,0,0,1,1.06,3.8c.32,1.3.86,2.53,1.29,3.79,1,3,2.1,6.17,4.19,8.6A3.36,3.36,0,0,0,44,28c1.32-.49,3.09-1,4.07-2,1.45-1.53,1.17-3.29,1.11-5.23a19.56,19.56,0,0,0-1-5.28c-.6-2-1.15-4-1.87-5.92S44.7,6,44.13,4.2c-1.88.39-3.6,1.91-5.44,2.55A12.14,12.14,0,0,0,35.81,8a17,17,0,0,1-1.88,1.3"/></g></g></svg>