<svg xmlns="http://www.w3.org/2000/svg" viewBox="0 0 42.31 17.17"><defs><style>.cls-1{fill:#be1e2d;}.cls-2{fill:#231f20;}.cls-3{fill:#fff;}</style></defs><g id="Layer_2" data-name="Layer 2"><g id="Layer_1-2" data-name="Layer 1"><path class="cls-1" d="M5.1,4.25c5,0,9.33-.56,14.29-.8,5.66-.28,10.9-1.89,16.44-.16,2.07.64,5.05,2.31,3.64,5.27-1.24,2.62-5.86,2.61-8.15,2.82-5.93.53-12.36,1.36-18.39.75-2.09-.21-6.62-.8-8.17-2.54C2.36,6.92,1,4.42,5.1,4.25"/><path class="cls-2" d="M5.1,6.75c3.07,0,6.13-.23,9.19-.46s5.89-.33,8.82-.67a43.7,43.7,0,0,1,9.06-.54,13.49,13.49,0,0,1,3.49.79,7.32,7.32,0,0,1,1.48.87.56.56,0,0,1,0,.82,3.34,3.34,0,0,1-1.91.87,47.32,47.32,0,0,1-5.79.62c-5.81.55-11.69,1.21-17.51.47a24.82,24.82,0,0,1-3-.58,9.82,9.82,0,0,1-1.51-.48c.21.09-.3-.16-.34-.18S6.42,7.75,6.69,8A7.71,7.71,0,0,1,5,5.68c-.1-.24-.08.29,0-.16,0,.35.07.52-.12.86l-.49.5.19-.1c-.2.11-.15.11.17,0a.71.71,0,0,1,.41,0,2.55,2.55,0,0,0,2.5-2.5,2.53,2.53,0,0,0-2.5-2.5A6,6,0,0,0,1,3.21,3.94,3.94,0,0,0,.25,7.27a10.16,10.16,0,0,0,5.62,5.89,25.72,25.72,0,0,0,7.52,1.51,65.66,65.66,0,0,0,11.39-.19c3.06-.25,6.14-.48,9.19-.82,2.74-.3,5.75-.92,7.39-3.38,1.88-2.81.8-6.08-1.78-7.94S33.45,0,30.36,0C26.23,0,22.09.78,18,1c-4.29.26-8.57.71-12.87.72-3.22,0-3.23,5,0,5Z"/><path class="cls-3" d="M12.49,5.1a7.25,7.25,0,0,0,4.24,8.69c4.85,1.87,5.42-4.64,4.91-7.81-.55,1.6.9,4.13,1.62,5.53,1,1.89,2.59,2.67,4.59,3.1,2.64.57,2.73-1.8,2.87-4A15.16,15.16,0,0,0,30,4.87"/><path class="cls-2" d="M10.08,4.43a9.81,9.81,0,0,0,1.53,8.41c1.76,2.35,4.79,4.28,7.84,3.65,4.8-1,5.19-7.31,4.6-11.17a2.52,2.52,0,0,0-2.41-1.84,2.56,2.56,0,0,0-2.42,1.84c-.73,2.58.69,5.24,1.88,7.45a8.72,8.72,0,0,0,6.34,4.3c7,1.22,6.28-8.7,5-12.87a2.55,2.55,0,0,0-3.08-1.74,2.52,2.52,0,0,0-1.74,3.07,15.13,15.13,0,0,1,.55,5.85c0,.18,0,.36-.05.54,0,.5.06-.22,0,.07a3.72,3.72,0,0,0-.11.48c-.08.53.15-.25,0,0s-.13.14.07,0,.34-.24.18-.14-.08.06.21-.09.39,0,.09,0c-.69-.11.45.18-.32-.06-.4-.12-.82-.21-1.22-.36.32.12-.06,0-.18-.09l-.52-.3c-.36-.22,0,0-.16-.13s-.29-.28-.42-.43c.22.27-.1-.17-.13-.23s-.2-.35-.29-.52c-.17-.34-.35-.67-.52-1s-.22-.46-.32-.69,0,0-.1-.23A10.53,10.53,0,0,1,24,7c0-.18,0-.15,0,.09V6.6c-.05.31,0,.33,0,.05H19.22c.08.5,0-.56,0-.07,0,.17,0,.33.05.49q0,.52,0,1c0,.37,0,.73-.05,1.1,0,.13-.13.74,0,.07,0,.18-.06.36-.1.54-.07.35-.17.69-.27,1s-.31.47,0,0a3.68,3.68,0,0,0-.23.44c-.13.26-.37.32,0,0a2.38,2.38,0,0,0-.31.33c.18-.36.37-.19,0,0s.57-.16.05,0,.57,0,0,0c-.17,0-.69-.07-.05,0-.2,0-.4-.08-.6-.14s-.64-.26-.29-.1a5.25,5.25,0,0,1-.66-.36c-.08,0-.62-.46-.3-.19a6.51,6.51,0,0,1-.54-.51c-.06-.06-.5-.58-.24-.24A6.93,6.93,0,0,1,15,8.86c.15.32,0-.06,0-.2s-.14-.47-.2-.71,0-.23-.07-.35c0,.22,0,.24,0,.05s0-.48,0-.73c0-.09.06-.75,0-.52s0,.12,0-.16a4.21,4.21,0,0,1,.12-.48,2.5,2.5,0,1,0-4.82-1.33Z"/></g></g></svg>