<svg xmlns="http://www.w3.org/2000/svg" viewBox="0 0 52.38 20.48"><defs><style>.cls-1{fill:#231f20;}</style></defs><g id="Layer_2" data-name="Layer 2"><g id="Layer_1-2" data-name="Layer 1"><path class="cls-1" d="M.78,11.42c3.05,2.86,6.66,5.72,10.7,7a41.43,41.43,0,0,0,11.31,2,22.63,22.63,0,0,0,11.35-2.41c3-1.58,6.25-3.23,8.15-6.13,1.78-2.69-2.55-5.2-4.31-2.52-1.32,2-4.26,3.22-6.37,4.33a17.64,17.64,0,0,1-9.22,1.71A37.77,37.77,0,0,1,13,13.69c-3.25-1-6.22-3.52-8.67-5.81S-1.58,9.21.78,11.42Z"/><path class="cls-1" d="M45.81,5h.12l-.67-.09c.33,0,.7.34,0-.07.19.1.39.2.58.32s.4.28.6.42c-.75-.53,0,0,.18.17a12.3,12.3,0,0,1,1,1c.18.2.12.34-.21-.28a2.33,2.33,0,0,0,.17.26c.19.32-.21-.64-.12-.25,0,.12.06.24.08.36l-.09-.66a3.79,3.79,0,0,1,0,.89l.08-.67a5.64,5.64,0,0,1-.3,1.21c-.16.48.2-.43.08-.19l-.11.26c-.1.2-.21.39-.32.58s-.22.33-.33.49c-.24.35.12-.19.17-.22s-.14.17-.19.23-.25.26-.38.38.56-.37.25-.19c-.07,0-.13.08-.19.11a2.5,2.5,0,0,0,2.52,4.32A7.19,7.19,0,0,0,51,10.88a8.16,8.16,0,0,0,1.22-3,5.22,5.22,0,0,0-.61-3.94,10,10,0,0,0-2-2.11A6.53,6.53,0,0,0,45.81,0a2.52,2.52,0,0,0-2.5,2.5A2.55,2.55,0,0,0,45.81,5Z"/></g></g></svg>