<svg xmlns="http://www.w3.org/2000/svg" viewBox="0 0 46.9 18.56"><defs><style>.cls-1{fill:#231f20;}</style></defs><g id="Layer_2" data-name="Layer 2"><g id="Layer_1-2" data-name="Layer 1"><path class="cls-1" d="M2.5,11.3c3.89.26,7.78-.14,11.66-.19,4.2-.06,8.41.16,12.6,0a46.11,46.11,0,0,0,12-1.69A11.33,11.33,0,0,0,43.32,7c.49-.47.93-1,1.38-1.49l.58-.63c.53-.55.26-.08-.21,0a2.53,2.53,0,0,0,1.75-3.07A2.55,2.55,0,0,0,43.74.06c-1.27.26-2.17,1.46-3,2.37a5.88,5.88,0,0,1-3.07,2.1A40.9,40.9,0,0,1,26.29,6.12c-4,.13-8.09-.07-12.13,0-3.88,0-7.77.45-11.66.19a2.5,2.5,0,0,0,0,5Z"/><path class="cls-1" d="M17.53,18.24l.45-.06c-.25,0-.29,0-.1,0l.66-.07c.47-.05.95-.08,1.42-.1.89,0,1.79,0,2.69,0s1.78.1,2.66.19l1.29.14.66.08.42.06a2.8,2.8,0,0,0,1.93-.25,2.58,2.58,0,0,0,1.15-1.5c.27-1.17-.36-2.88-1.75-3.07-2.11-.29-4.23-.57-6.36-.65a33.94,33.94,0,0,0-6.45.39,2.51,2.51,0,0,0-1.74,3.08,2.56,2.56,0,0,0,3.07,1.74Z"/></g></g></svg>