<svg xmlns="http://www.w3.org/2000/svg" viewBox="0 0 50.16 10.77"><defs><style>.cls-1{fill:none;stroke:#231f20;stroke-miterlimit:10;stroke-width:4px;}</style></defs><g id="Layer_2" data-name="Layer 2"><g id="Layer_1-2" data-name="Layer 1"><path class="cls-1" d="M1.63,9,4.43,5a1.29,1.29,0,0,1,2-.1l2.61,3a1.29,1.29,0,0,0,2-.11l3.17-4.55a1.29,1.29,0,0,1,2.07-.06L19.38,7a1.29,1.29,0,0,0,2.29-.6l.31-2A1.28,1.28,0,0,1,24.2,3.8l4.18,4.55a1.29,1.29,0,0,0,2.21-.59L31.2,5a1.29,1.29,0,0,1,2.24-.56L36.19,7.7a1.29,1.29,0,0,0,2.21-.45C39.11,5,40.17,1.89,40.61,2s2.54,3.07,4,5.19a1.29,1.29,0,0,0,2.28-.31l1.38-4"/></g></g></svg>